<svg xmlns="http://www.w3.org/2000/svg" xmlns:xlink="http://www.w3.org/1999/xlink" width="500" zoomAndPan="magnify" viewBox="0 0 375 374.999991" height="500" preserveAspectRatio="xMidYMid meet" version="1.0"><defs><g/><clipPath id="037482ca47"><path d="M 189 83.523438 L 248 83.523438 L 248 157 L 189 157 Z M 189 83.523438 " clip-rule="nonzero"/></clipPath><clipPath id="5e7d95ca15"><path d="M 116.078125 83.523438 L 258.578125 83.523438 L 258.578125 192.273438 L 116.078125 192.273438 Z M 116.078125 83.523438 " clip-rule="nonzero"/></clipPath><clipPath id="1e82856692"><path d="M 127 83.523438 L 185 83.523438 L 185 157 L 127 157 Z M 127 83.523438 " clip-rule="nonzero"/></clipPath></defs><g clip-path="url(#037482ca47)"><path fill="#018f45" d="M 247.261719 127.941406 L 233.140625 83.402344 C 233.140625 83.402344 227.6875 88.183594 212.820312 90.449219 C 197.957031 92.714844 189.78125 101.265625 189.78125 101.265625 L 189.78125 156.125 C 201.421875 141.277344 247.261719 127.941406 247.261719 127.941406 " fill-opacity="1" fill-rule="nonzero"/></g><g clip-path="url(#5e7d95ca15)"><path fill="#018f45" d="M 253.367188 137.511719 L 220.203125 153.851562 C 221.984375 154.46875 223.777344 155.261719 225.191406 157.335938 C 227.914062 161.308594 224.332031 163.546875 223.957031 163.425781 C 223.820312 163.382812 218.875 160.832031 212.617188 157.59375 L 210.34375 158.714844 L 210.34375 158.722656 C 219.335938 161.96875 226.09375 173.078125 229.320312 175.761719 C 233.433594 179.167969 239.332031 178.125 243.261719 183.867188 C 247.195312 189.609375 242.011719 192.902344 241.476562 192.722656 C 241.011719 192.570312 200.375 171.894531 189.808594 166.136719 L 184.863281 166.136719 C 174.296875 171.894531 133.660156 192.570312 133.195312 192.722656 C 132.65625 192.902344 127.472656 189.609375 131.410156 183.867188 C 135.335938 178.125 141.238281 179.167969 145.351562 175.761719 C 148.578125 173.078125 155.335938 161.96875 164.324219 158.722656 L 164.324219 158.714844 L 162.054688 157.59375 C 155.796875 160.832031 150.847656 163.382812 150.714844 163.425781 C 150.339844 163.546875 146.757812 161.308594 149.480469 157.335938 C 150.890625 155.261719 152.683594 154.46875 154.46875 153.851562 L 121.300781 137.511719 L 116.089844 134.941406 L 117.882812 129.152344 L 131.976562 83.542969 L 137.453125 85.25 L 123.117188 131.644531 L 187.335938 162.179688 L 251.554688 131.644531 L 237.21875 85.25 L 242.695312 83.542969 L 256.789062 129.152344 L 258.578125 134.941406 L 253.367188 137.511719 " fill-opacity="1" fill-rule="nonzero"/></g><g clip-path="url(#1e82856692)"><path fill="#018f45" d="M 184.890625 156.125 L 184.890625 101.265625 C 184.890625 101.265625 176.714844 92.714844 161.847656 90.449219 C 146.984375 88.183594 141.53125 83.402344 141.53125 83.402344 L 127.40625 127.941406 C 127.40625 127.941406 173.246094 141.277344 184.890625 156.125 " fill-opacity="1" fill-rule="nonzero"/></g><g fill="#018f45" fill-opacity="1"><g transform="translate(77.460937, 253.868832)"><g><path d="M 19.234375 -17.289062 L 22.957031 -21.011719 L 19.375 -24.566406 L 19.09375 -24.566406 L 15.625 -21.125 L 15.625 -20.898438 Z M 13.90625 9.027344 C 25.554688 9.027344 28.542969 4.175781 28.542969 -3.636719 L 28.542969 -15.792969 L 28.234375 -15.992188 L 24.144531 -12.324219 C 23.4375 -11.675781 23.101562 -10.773438 23.382812 -9.84375 C 26.851562 0.988281 26.371094 1.578125 13.90625 1.578125 C 1.917969 1.578125 1.917969 0 12.609375 0 C 14.441406 0 18.445312 -0.902344 18.109375 -6.9375 L 17.710938 -7.417969 L 13.875 -7.417969 C -2.480469 -7.417969 -2.480469 9.027344 13.90625 9.027344 Z M 13.90625 9.027344 "/></g></g></g><g fill="#018f45" fill-opacity="1"><g transform="translate(107.694623, 253.868832)"><g><path d="M -0.367188 -34.015625 L 0.0546875 -34.183594 C 0.59375 -36.414062 1.972656 -36.636719 4.429688 -36.636719 C 5.839844 -36.667969 7.558594 -36.582031 9.082031 -36.636719 C 13.371094 -36.722656 14.667969 -38.554688 12.71875 -42.277344 L 12.324219 -42.109375 C 11.988281 -40.445312 10.210938 -40.304688 8.519531 -40.164062 C 6.9375 -40.050781 5.046875 -40.109375 3.441406 -40.078125 C -0.816406 -40.078125 -2.707031 -37.371094 -0.367188 -34.015625 Z M 5.046875 1.75 C 6.710938 0.453125 7.503906 -1.410156 7.445312 -3.527344 C 7.25 -8.773438 7.53125 -16.386719 7.8125 -21.070312 C 7.953125 -23.042969 9.027344 -24.199219 10.292969 -25.214844 L 10.4375 -25.695312 C 9.167969 -28.007812 8.601562 -30.828125 8.40625 -33.847656 L 7.644531 -34.15625 L 5.046875 -32.238281 C 2.960938 -30.660156 2.765625 -28.429688 3.160156 -25.863281 C 3.46875 -23.71875 3.382812 -21.40625 3.382812 -20.054688 C 3.527344 -4.765625 3.414062 -0.367188 4.652344 1.636719 Z M 5.046875 1.75 "/></g></g></g><g fill="#018f45" fill-opacity="1"><g transform="translate(118.863037, 253.868832)"><g><path d="M 1.804688 10.832031 C 7.898438 9.789062 9.082031 4.851562 9.082031 0 L 10.492188 0 L 10.492188 -7.417969 L 8.375 -7.417969 C 6.628906 -7.417969 5.78125 -5.980469 6.09375 -4.230469 C 6.65625 -0.816406 4.90625 3.554688 -0.902344 3.554688 L -2.480469 3.554688 L -2.707031 3.890625 C -0.394531 10.800781 -0.339844 11.199219 1.804688 10.832031 Z M 1.804688 10.832031 "/></g></g></g><g fill="#018f45" fill-opacity="1"><g transform="translate(129.354579, 253.868832)"><g><path d="M 11.929688 -23.183594 L 15.34375 -19.488281 L 19.320312 -23.210938 L 15.457031 -26.792969 L 15.230469 -26.792969 L 12.210938 -23.523438 L 8.914062 -27.078125 L 8.6875 -27.078125 L 4.878906 -23.578125 L 4.878906 -23.410156 L 8.800781 -19.773438 Z M 19.234375 -7.417969 C 20.25 -12.4375 18.050781 -18.136719 11.648438 -18.136719 C 4.457031 -18.136719 2.480469 -9.421875 4.257812 -7.417969 L -0.816406 -7.417969 C -1.972656 -7.417969 -2.820312 -6.570312 -2.820312 -5.414062 L -2.820312 -2.003906 C -2.820312 -0.847656 -1.972656 0 -0.816406 0 L 11.453125 0 C 12.832031 0 14.074219 -0.367188 15.117188 -1.015625 C 16.21875 -0.367188 17.515625 0 18.898438 0 L 22.394531 0 L 22.394531 -7.417969 Z M 6.035156 -8.601562 C 6.035156 -11.085938 16.191406 -10.265625 16.191406 -7.417969 C 9.027344 -7.417969 6.035156 -7.417969 6.035156 -8.601562 Z M 6.035156 -8.601562 "/></g></g></g><g fill="#018f45" fill-opacity="1"><g transform="translate(151.747816, 253.868832)"><g><path d="M -0.816406 0 L 2.003906 0 C 8.152344 0 9.421875 -4.035156 9.421875 -9.984375 L 9.421875 -21.070312 C 9.5625 -23.015625 10.691406 -24.171875 11.929688 -25.160156 L 12.070312 -25.835938 C 10.800781 -28.203125 9.703125 -31.054688 9.449219 -34.128906 L 8.914062 -34.324219 L 6.261719 -32.351562 C 4.089844 -30.714844 3.609375 -28.289062 4.144531 -25.636719 C 5.246094 -20.195312 5.867188 -11.28125 5.867188 -8.292969 C 5.867188 -7.8125 5.5 -7.417969 4.992188 -7.417969 L -0.816406 -7.417969 C -1.972656 -7.417969 -2.820312 -6.570312 -2.820312 -5.386719 L -2.820312 -2.003906 C -2.820312 -0.847656 -1.972656 0 -0.816406 0 Z M -0.816406 0 "/></g></g></g><g fill="#018f45" fill-opacity="1"><g transform="translate(164.044355, 253.868832)"><g><path d="M 10.832031 0 L 12.101562 0 L 12.101562 -7.417969 L 7.8125 -7.417969 C 7.332031 -7.417969 6.9375 -7.8125 6.9375 -8.292969 C 6.9375 -12.917969 7.332031 -16.78125 7.699219 -21.070312 C 7.8125 -22.957031 8.941406 -24.117188 10.152344 -25.101562 L 10.378906 -25.808594 C 9.167969 -28.148438 8.574219 -30.941406 8.375 -33.957031 L 7.726562 -34.210938 L 5.046875 -32.238281 C 2.960938 -30.660156 2.765625 -28.429688 3.160156 -25.863281 C 3.46875 -23.71875 3.382812 -21.40625 3.382812 -20.054688 L 3.382812 -7.445312 C 3.382812 -3.355469 6.710938 0 10.832031 0 Z M 10.832031 0 "/></g></g></g><g fill="#018f45" fill-opacity="1"><g transform="translate(176.143471, 253.868832)"><g><path d="M -0.816406 0 L 5.386719 0 C 9.476562 0 12.832031 -3.328125 12.832031 -7.417969 L 12.832031 -16.753906 L 12.210938 -17.148438 L 8.660156 -14.46875 C 7.472656 -13.59375 7.21875 -11.988281 8.121094 -10.773438 C 9.929688 -8.347656 11.816406 -7.417969 9.535156 -7.417969 L -0.816406 -7.417969 C -1.972656 -7.417969 -2.820312 -6.570312 -2.820312 -5.414062 L -2.820312 -2.003906 C -2.820312 -0.847656 -1.972656 0 -0.816406 0 Z M 5.414062 9.082031 L 9.136719 5.359375 L 5.5 1.71875 L 5.332031 1.71875 L 1.75 5.300781 L 1.75 5.414062 Z M 5.414062 9.082031 "/></g></g></g><g fill="#018f45" fill-opacity="1"><g transform="translate(190.668048, 253.868832)"><g/></g></g><g fill="#018f45" fill-opacity="1"><g transform="translate(199.128974, 253.868832)"><g><path d="M 1.804688 10.832031 C 7.898438 9.789062 9.082031 4.851562 9.082031 0 L 10.492188 0 L 10.492188 -7.417969 L 8.375 -7.417969 C 6.628906 -7.417969 5.78125 -5.980469 6.09375 -4.230469 C 6.65625 -0.816406 4.90625 3.554688 -0.902344 3.554688 L -2.480469 3.554688 L -2.707031 3.890625 C -0.394531 10.800781 -0.339844 11.199219 1.804688 10.832031 Z M 1.804688 10.832031 "/></g></g></g><g fill="#018f45" fill-opacity="1"><g transform="translate(209.620516, 253.868832)"><g><path d="M 14.976562 -17.683594 C 10.070312 -17.683594 6.121094 -17.203125 5.953125 -19.96875 L 5.613281 -20.167969 C 1.015625 -19.773438 0.875 -11.421875 6.9375 -10.351562 C 7.417969 -9.136719 8.179688 -8.066406 9.054688 -7.417969 L -0.816406 -7.417969 C -1.972656 -7.417969 -2.820312 -6.570312 -2.820312 -5.414062 L -2.820312 -2.003906 C -2.820312 -0.847656 -1.972656 0 -0.816406 0 L 6.515625 0 C 9.167969 0 11.761719 -0.675781 14.019531 -1.890625 C 16.273438 -0.675781 18.8125 0 21.492188 0 C 29.757812 0 35.511719 -17.683594 14.976562 -17.683594 Z M 14.019531 -7.304688 C 11.054688 -8.519531 8.265625 -10.210938 11.308594 -10.210938 L 16.445312 -10.210938 C 19.488281 -10.210938 16.273438 -8.433594 14.019531 -7.304688 Z M 25.046875 -7.417969 L 18.417969 -7.417969 C 19.433594 -8.09375 20.25 -8.996094 20.84375 -9.984375 C 27.105469 -9.28125 25.046875 -7.417969 25.046875 -7.417969 Z M 25.046875 -7.417969 "/></g></g></g><g fill="#018f45" fill-opacity="1"><g transform="translate(240.333652, 253.868832)"><g><path d="M 10.832031 0 L 12.101562 0 L 12.101562 -7.417969 L 7.8125 -7.417969 C 7.332031 -7.417969 6.9375 -7.8125 6.9375 -8.292969 C 6.9375 -12.917969 7.332031 -16.78125 7.699219 -21.070312 C 7.8125 -22.957031 8.941406 -24.117188 10.152344 -25.101562 L 10.378906 -25.808594 C 9.167969 -28.148438 8.574219 -30.941406 8.375 -33.957031 L 7.726562 -34.210938 L 5.046875 -32.238281 C 2.960938 -30.660156 2.765625 -28.429688 3.160156 -25.863281 C 3.46875 -23.71875 3.382812 -21.40625 3.382812 -20.054688 L 3.382812 -7.445312 C 3.382812 -3.355469 6.710938 0 10.832031 0 Z M 10.832031 0 "/></g></g></g><g fill="#018f45" fill-opacity="1"><g transform="translate(252.432769, 253.868832)"><g><path d="M -0.816406 0 L 5.613281 0 C 6.996094 0 8.09375 -0.847656 8.40625 -2.117188 C 8.996094 -0.847656 10.210938 0 12.523438 0 L 21.632812 0 L 21.632812 -7.417969 L 19.742188 -7.417969 C 20.082031 -10.097656 18.617188 -17.710938 9.136719 -17.710938 C 5.105469 -17.710938 4.257812 -13.707031 4.992188 -9.308594 C 5.21875 -8.011719 4.683594 -7.417969 3.46875 -7.417969 L -0.816406 -7.417969 C -1.972656 -7.417969 -2.820312 -6.570312 -2.820312 -5.414062 L -2.820312 -2.003906 C -2.820312 -0.847656 -1.972656 0 -0.816406 0 Z M 16.667969 -7.417969 C 12.296875 -7.644531 8.039062 -6.882812 7.953125 -7.953125 C 7.898438 -9.109375 8.800781 -9.390625 9.957031 -9.390625 C 13.371094 -9.390625 16.667969 -8.742188 16.667969 -7.417969 Z M 16.667969 -7.417969 "/></g></g></g><g fill="#018f45" fill-opacity="1"><g transform="translate(274.064515, 253.868832)"><g><path d="M -0.816406 0 L 2.003906 0 C 8.152344 0 9.421875 -4.035156 9.421875 -9.984375 L 9.421875 -21.070312 C 9.5625 -23.015625 10.691406 -24.171875 11.929688 -25.160156 L 12.070312 -25.835938 C 10.800781 -28.203125 9.703125 -31.054688 9.449219 -34.128906 L 8.914062 -34.324219 L 6.261719 -32.351562 C 4.089844 -30.714844 3.609375 -28.289062 4.144531 -25.636719 C 5.246094 -20.195312 5.867188 -11.28125 5.867188 -8.292969 C 5.867188 -7.8125 5.5 -7.417969 4.992188 -7.417969 L -0.816406 -7.417969 C -1.972656 -7.417969 -2.820312 -6.570312 -2.820312 -5.386719 L -2.820312 -2.003906 C -2.820312 -0.847656 -1.972656 0 -0.816406 0 Z M -0.816406 0 "/></g></g></g><g fill="#018f45" fill-opacity="1"><g transform="translate(286.361054, 253.868832)"><g><path d="M 5.046875 1.75 C 6.710938 0.453125 7.503906 -1.410156 7.445312 -3.527344 C 7.25 -8.773438 7.53125 -16.386719 7.8125 -21.070312 C 7.953125 -23.042969 9.027344 -24.199219 10.292969 -25.214844 L 10.4375 -25.695312 C 9.167969 -28.007812 8.601562 -30.828125 8.40625 -33.847656 L 7.644531 -34.15625 L 5.046875 -32.238281 C 2.960938 -30.660156 2.765625 -28.429688 3.160156 -25.863281 C 3.46875 -23.71875 3.382812 -21.40625 3.382812 -20.054688 C 3.527344 -4.765625 3.414062 -0.367188 4.652344 1.636719 Z M 5.046875 1.75 "/></g></g></g></svg>