<svg xmlns="http://www.w3.org/2000/svg" xmlns:xlink="http://www.w3.org/1999/xlink" width="500" zoomAndPan="magnify" viewBox="0 0 375 374.999991" height="500" preserveAspectRatio="xMidYMid meet" version="1.0"><defs><g/><clipPath id="778aee64a3"><path d="M 189 83.523438 L 248 83.523438 L 248 157 L 189 157 Z M 189 83.523438 " clip-rule="nonzero"/></clipPath><clipPath id="53c19ed7e3"><path d="M 116.078125 83.523438 L 258.578125 83.523438 L 258.578125 192.273438 L 116.078125 192.273438 Z M 116.078125 83.523438 " clip-rule="nonzero"/></clipPath><clipPath id="be1e1691ba"><path d="M 127 83.523438 L 185 83.523438 L 185 157 L 127 157 Z M 127 83.523438 " clip-rule="nonzero"/></clipPath></defs><g clip-path="url(#778aee64a3)"><path fill="#018f45" d="M 247.261719 127.941406 L 233.140625 83.402344 C 233.140625 83.402344 227.6875 88.183594 212.820312 90.449219 C 197.957031 92.714844 189.78125 101.265625 189.78125 101.265625 L 189.78125 156.125 C 201.421875 141.277344 247.261719 127.941406 247.261719 127.941406 " fill-opacity="1" fill-rule="nonzero"/></g><g clip-path="url(#53c19ed7e3)"><path fill="#018f45" d="M 253.367188 137.511719 L 220.203125 153.851562 C 221.984375 154.46875 223.777344 155.261719 225.191406 157.335938 C 227.914062 161.308594 224.332031 163.546875 223.957031 163.425781 C 223.820312 163.382812 218.875 160.832031 212.617188 157.59375 L 210.34375 158.714844 L 210.34375 158.722656 C 219.335938 161.96875 226.09375 173.078125 229.320312 175.761719 C 233.433594 179.167969 239.332031 178.125 243.261719 183.867188 C 247.195312 189.609375 242.011719 192.902344 241.476562 192.722656 C 241.011719 192.570312 200.375 171.894531 189.808594 166.136719 L 184.863281 166.136719 C 174.296875 171.894531 133.660156 192.570312 133.195312 192.722656 C 132.65625 192.902344 127.472656 189.609375 131.410156 183.867188 C 135.335938 178.125 141.238281 179.167969 145.351562 175.761719 C 148.578125 173.078125 155.335938 161.96875 164.324219 158.722656 L 164.324219 158.714844 L 162.054688 157.59375 C 155.796875 160.832031 150.847656 163.382812 150.714844 163.425781 C 150.339844 163.546875 146.757812 161.308594 149.480469 157.335938 C 150.890625 155.261719 152.683594 154.46875 154.46875 153.851562 L 121.300781 137.511719 L 116.089844 134.941406 L 117.882812 129.152344 L 131.976562 83.542969 L 137.453125 85.25 L 123.117188 131.644531 L 187.335938 162.179688 L 251.554688 131.644531 L 237.21875 85.25 L 242.695312 83.542969 L 256.789062 129.152344 L 258.578125 134.941406 L 253.367188 137.511719 " fill-opacity="1" fill-rule="nonzero"/></g><g clip-path="url(#be1e1691ba)"><path fill="#018f45" d="M 184.890625 156.125 L 184.890625 101.265625 C 184.890625 101.265625 176.714844 92.714844 161.847656 90.449219 C 146.984375 88.183594 141.53125 83.402344 141.53125 83.402344 L 127.40625 127.941406 C 127.40625 127.941406 173.246094 141.277344 184.890625 156.125 " fill-opacity="1" fill-rule="nonzero"/></g><g fill="#018f45" fill-opacity="1"><g transform="translate(82.054687, 254.61889)"><g><path d="M 13.925781 -12.691406 L 16.21875 -14.984375 L 13.925781 -17.277344 L 11.632812 -14.984375 Z M 11.035156 6.628906 L 16.464844 6.628906 C 20.273438 6.628906 24.117188 3.277344 24.117188 0 L 24.117188 -10.753906 C 23.199219 -9.027344 21.859375 -7.15625 19.847656 -5.816406 C 20.378906 -4.972656 20.90625 -3.527344 20.90625 -1.023438 C 20.90625 1.410156 18.863281 3.382812 16.464844 3.382812 L 11.035156 3.382812 C 8.601562 3.382812 6.628906 1.410156 6.628906 -1.023438 L 6.628906 -3.242188 C 5.640625 -1.832031 4.757812 -1.269531 3.382812 -0.777344 C 3.527344 3.347656 6.875 6.628906 11.035156 6.628906 Z M 11.035156 6.628906 "/></g></g></g><g fill="#018f45" fill-opacity="1"><g transform="translate(109.552709, 254.61889)"><g><path d="M 1.867188 -28.417969 C 2.855469 -31.167969 7.472656 -32.789062 7.472656 -36.382812 L 7.472656 -38.359375 C 6.382812 -34.972656 1.867188 -33.917969 1.867188 -30.003906 Z M 3.382812 0 L 6.59375 0 L 6.59375 -30.003906 C 5.675781 -28.277344 4.335938 -26.40625 2.328125 -25.066406 C 2.855469 -24.222656 3.382812 -22.777344 3.382812 -20.273438 Z M 3.382812 0 "/></g></g></g><g fill="#018f45" fill-opacity="1"><g transform="translate(119.529553, 254.61889)"><g><path d="M 0.527344 8.390625 L 1.726562 8.390625 C 5.464844 8.390625 8.460938 5.21875 8.460938 0.917969 L 8.460938 -14.738281 C 7.15625 -13.855469 5.992188 -13.46875 5.21875 -13.328125 L 5.21875 0.917969 C 5.21875 3.703125 3.597656 5.324219 0.8125 5.324219 L -0.882812 5.324219 C 0.351562 7.121094 0.492188 7.863281 0.527344 8.390625 Z M 0.527344 8.390625 "/></g></g></g><g fill="#018f45" fill-opacity="1"><g transform="translate(127.99049, 254.61889)"><g><path d="M 11.632812 -20.132812 L 13.925781 -22.421875 L 11.632812 -24.714844 L 9.34375 -22.421875 Z M 16.921875 -20.132812 L 19.214844 -22.421875 L 16.921875 -24.714844 L 14.632812 -22.421875 Z M -0.667969 0 L 20.835938 0 L 20.835938 -14.101562 C 20.835938 -14.984375 20.097656 -15.722656 19.214844 -15.722656 L 14.5625 -15.722656 C 10.332031 -15.722656 6.945312 -12.304688 6.945312 -8.074219 L 6.945312 -3.242188 L -0.667969 -3.242188 C -1.199219 -3.242188 -1.585938 -2.855469 -1.585938 -2.328125 L -1.585938 -0.917969 C -1.585938 -0.386719 -1.199219 0 -0.667969 0 Z M 9.835938 -3.242188 L 9.835938 -8.074219 C 9.835938 -10.507812 11.8125 -12.480469 14.242188 -12.480469 L 17.59375 -12.480469 L 17.59375 -3.242188 Z M 9.835938 -3.242188 "/></g></g></g><g fill="#018f45" fill-opacity="1"><g transform="translate(148.825534, 254.61889)"><g><path d="M -1.199219 0 L 6.382812 0 C 7.96875 0 9.097656 -1.128906 9.097656 -2.714844 L 9.097656 -30.003906 C 8.179688 -28.242188 6.839844 -26.371094 4.832031 -25.03125 C 5.359375 -24.1875 5.886719 -22.742188 5.886719 -20.273438 L 5.886719 -3.242188 L -1.199219 -3.242188 C -1.726562 -3.242188 -2.46875 -2.855469 -2.46875 -2.328125 L -2.46875 -0.917969 C -2.46875 -0.386719 -1.726562 0 -1.199219 0 Z M -1.199219 0 "/></g></g></g><g fill="#018f45" fill-opacity="1"><g transform="translate(161.305406, 254.61889)"><g><path d="M 3.382812 0 L 8.214844 0 L 8.214844 -3.242188 L 6.59375 -3.242188 L 6.59375 -30.003906 C 5.675781 -28.277344 4.335938 -26.40625 2.328125 -25.066406 C 2.855469 -24.222656 3.382812 -22.777344 3.382812 -20.273438 Z M 3.382812 0 "/></g></g></g><g fill="#018f45" fill-opacity="1"><g transform="translate(169.554811, 254.61889)"><g><path d="M -1.199219 0 L 15.019531 0 C 15.902344 0 16.640625 -0.742188 16.640625 -1.621094 L 16.640625 -14.738281 C 15.335938 -13.855469 14.171875 -13.46875 13.398438 -13.328125 L 13.398438 -3.242188 L -1.199219 -3.242188 C -1.726562 -3.242188 -2.46875 -2.855469 -2.46875 -2.328125 L -2.46875 -0.917969 C -2.46875 -0.386719 -1.726562 0 -1.199219 0 Z M 8.992188 8.8125 L 11.28125 6.523438 L 8.992188 4.230469 L 6.699219 6.523438 Z M 8.992188 8.8125 "/></g></g></g><g fill="#018f45" fill-opacity="1"><g transform="translate(189.579017, 254.61889)"><g/></g></g><g fill="#018f45" fill-opacity="1"><g transform="translate(200.507724, 254.61889)"><g><path d="M 0.527344 8.390625 L 1.726562 8.390625 C 5.464844 8.390625 8.460938 5.21875 8.460938 0.917969 L 8.460938 -14.738281 C 7.15625 -13.855469 5.992188 -13.46875 5.21875 -13.328125 L 5.21875 0.917969 C 5.21875 3.703125 3.597656 5.324219 0.8125 5.324219 L -0.882812 5.324219 C 0.351562 7.121094 0.492188 7.863281 0.527344 8.390625 Z M 0.527344 8.390625 "/></g></g></g><g fill="#018f45" fill-opacity="1"><g transform="translate(208.968661, 254.61889)"><g><path d="M 19.109375 1.691406 C 21.578125 4.6875 30.390625 4.019531 30.390625 -5.324219 C 30.390625 -11.5625 25.878906 -15.6875 19.109375 -15.6875 L 19.109375 -26.335938 C 18.191406 -24.574219 16.816406 -22.742188 14.84375 -21.402344 C 15.371094 -20.449219 15.972656 -18.722656 15.828125 -15.722656 L 5.886719 -15.722656 L 5.886719 -3.242188 L -1.199219 -3.242188 C -1.726562 -3.242188 -2.46875 -2.855469 -2.46875 -2.328125 L -2.46875 -0.917969 C -2.46875 -0.386719 -1.726562 0 -1.199219 0 L 19.109375 0 L 19.109375 -12.445312 C 24.292969 -12.445312 27.113281 -9.835938 27.113281 -5.183594 C 27.113281 -1.515625 24.292969 1.691406 19.109375 1.691406 Z M 9.097656 -3.242188 L 9.097656 -12.480469 L 15.867188 -12.480469 L 15.867188 -3.242188 Z M 9.097656 -3.242188 "/></g></g></g><g fill="#018f45" fill-opacity="1"><g transform="translate(242.001549, 254.61889)"><g><path d="M 3.382812 0 L 8.214844 0 L 8.214844 -3.242188 L 6.59375 -3.242188 L 6.59375 -30.003906 C 5.675781 -28.277344 4.335938 -26.40625 2.328125 -25.066406 C 2.855469 -24.222656 3.382812 -22.777344 3.382812 -20.273438 Z M 3.382812 0 "/></g></g></g><g fill="#018f45" fill-opacity="1"><g transform="translate(250.250953, 254.61889)"><g><path d="M 15.582031 0.457031 L 17.027344 -1.269531 C 17.097656 -0.527344 17.945312 0 19.285156 0 L 20.238281 0 L 20.238281 -4.125 C 20.238281 -10.046875 15.652344 -14.667969 9.167969 -14.667969 L 5.921875 -12.550781 L 5.921875 -3.242188 L -0.667969 -3.242188 C -1.691406 -3.242188 -2.46875 -2.539062 -2.46875 -1.621094 C -2.46875 -0.707031 -1.691406 0 -0.667969 0 L 12.550781 0 C 13.996094 0 14.667969 0.140625 15.582031 0.457031 Z M 17.027344 -2.503906 C 15.652344 -2.996094 14.773438 -3.171875 13.007812 -3.242188 L 9.167969 -3.242188 L 9.167969 -11.28125 C 13.925781 -11.28125 17.027344 -8.425781 17.027344 -4.125 Z M 17.027344 -2.503906 "/></g></g></g><g fill="#018f45" fill-opacity="1"><g transform="translate(270.486681, 254.61889)"><g><path d="M -1.199219 0 L 6.382812 0 C 7.96875 0 9.097656 -1.128906 9.097656 -2.714844 L 9.097656 -30.003906 C 8.179688 -28.242188 6.839844 -26.371094 4.832031 -25.03125 C 5.359375 -24.1875 5.886719 -22.742188 5.886719 -20.273438 L 5.886719 -3.242188 L -1.199219 -3.242188 C -1.726562 -3.242188 -2.46875 -2.855469 -2.46875 -2.328125 L -2.46875 -0.917969 C -2.46875 -0.386719 -1.726562 0 -1.199219 0 Z M -1.199219 0 "/></g></g></g><g fill="#018f45" fill-opacity="1"><g transform="translate(282.966554, 254.61889)"><g><path d="M 3.382812 0 L 6.59375 0 L 6.59375 -30.003906 C 5.675781 -28.277344 4.335938 -26.40625 2.328125 -25.066406 C 2.855469 -24.222656 3.382812 -22.777344 3.382812 -20.273438 Z M 3.382812 0 "/></g></g></g></svg>