<svg xmlns="http://www.w3.org/2000/svg" xmlns:xlink="http://www.w3.org/1999/xlink" width="432" zoomAndPan="magnify" viewBox="0 0 324 227.999995" height="304" preserveAspectRatio="xMidYMid meet" version="1.0"><defs><g/><clipPath id="60d7db0627"><path d="M 123 78.464844 L 161 78.464844 L 161 126 L 123 126 Z M 123 78.464844 " clip-rule="nonzero"/></clipPath><clipPath id="9d876ff3bc"><path d="M 75.1875 78.464844 L 168.363281 78.464844 L 168.363281 149.609375 L 75.1875 149.609375 Z M 75.1875 78.464844 " clip-rule="nonzero"/></clipPath><clipPath id="82ba3ff023"><path d="M 82 78.464844 L 121 78.464844 L 121 126 L 82 126 Z M 82 78.464844 " clip-rule="nonzero"/></clipPath></defs><g clip-path="url(#60d7db0627)"><path fill="#018f45" d="M 160.964844 107.355469 L 151.730469 78.386719 C 151.730469 78.386719 148.164062 81.496094 138.445312 82.972656 C 128.722656 84.445312 123.375 90.007812 123.375 90.007812 L 123.375 125.6875 C 130.992188 116.03125 160.964844 107.355469 160.964844 107.355469 " fill-opacity="1" fill-rule="nonzero"/></g><g clip-path="url(#9d876ff3bc)"><path fill="#018f45" d="M 164.957031 113.582031 L 143.269531 124.207031 C 144.4375 124.609375 145.609375 125.125 146.53125 126.472656 C 148.3125 129.058594 145.96875 130.515625 145.726562 130.433594 C 145.636719 130.40625 142.402344 128.75 138.3125 126.640625 L 136.824219 127.375 L 136.824219 127.378906 C 142.703125 129.488281 147.121094 136.714844 149.230469 138.460938 C 151.921875 140.675781 155.78125 139.996094 158.347656 143.730469 C 160.921875 147.46875 157.53125 149.605469 157.179688 149.492188 C 156.878906 149.390625 130.304688 135.945312 123.394531 132.199219 L 120.160156 132.199219 C 113.253906 135.945312 86.679688 149.390625 86.375 149.492188 C 86.023438 149.605469 82.636719 147.46875 85.210938 143.730469 C 87.777344 139.996094 91.636719 140.675781 94.324219 138.460938 C 96.433594 136.714844 100.855469 129.488281 106.734375 127.378906 L 106.734375 127.375 L 105.246094 126.640625 C 101.15625 128.75 97.921875 130.40625 97.832031 130.433594 C 97.585938 130.515625 95.246094 129.058594 97.027344 126.472656 C 97.949219 125.125 99.121094 124.609375 100.289062 124.207031 L 78.601562 113.582031 L 75.191406 111.910156 L 76.363281 108.144531 L 85.578125 78.480469 L 89.160156 79.589844 L 79.785156 109.765625 L 121.777344 129.625 L 163.769531 109.765625 L 154.398438 79.589844 L 157.976562 78.480469 L 167.191406 108.144531 L 168.363281 111.910156 L 164.957031 113.582031 " fill-opacity="1" fill-rule="nonzero"/></g><g clip-path="url(#82ba3ff023)"><path fill="#018f45" d="M 120.179688 125.6875 L 120.179688 90.007812 C 120.179688 90.007812 114.832031 84.445312 105.113281 82.972656 C 95.390625 81.496094 91.828125 78.386719 91.828125 78.386719 L 82.59375 107.355469 C 82.59375 107.355469 112.566406 116.03125 120.179688 125.6875 " fill-opacity="1" fill-rule="nonzero"/></g><g fill="#018f45" fill-opacity="1"><g transform="translate(177.157133, 104.865185)"><g><path d="M 0.378906 5.992188 L 1.234375 5.992188 C 3.902344 5.992188 6.042969 3.726562 6.042969 0.65625 L 6.042969 -10.523438 C 5.109375 -9.894531 4.28125 -9.617188 3.726562 -9.515625 L 3.726562 0.65625 C 3.726562 2.644531 2.566406 3.800781 0.578125 3.800781 L -0.628906 3.800781 C 0.25 5.085938 0.351562 5.613281 0.378906 5.992188 Z M 0.378906 5.992188 "/></g></g></g><g fill="#018f45" fill-opacity="1"><g transform="translate(183.198179, 104.865185)"><g><path d="M 13.644531 1.207031 C 15.40625 3.347656 21.699219 2.871094 21.699219 -3.800781 C 21.699219 -8.257812 18.476562 -11.203125 13.644531 -11.203125 L 13.644531 -18.804688 C 12.988281 -17.546875 12.007812 -16.238281 10.597656 -15.28125 C 10.976562 -14.601562 11.402344 -13.367188 11.300781 -11.226562 L 4.203125 -11.226562 L 4.203125 -2.316406 L -0.855469 -2.316406 C -1.234375 -2.316406 -1.761719 -2.039062 -1.761719 -1.660156 L -1.761719 -0.65625 C -1.761719 -0.277344 -1.234375 0 -0.855469 0 L 13.644531 0 L 13.644531 -8.886719 C 17.34375 -8.886719 19.359375 -7.023438 19.359375 -3.699219 C 19.359375 -1.082031 17.34375 1.207031 13.644531 1.207031 Z M 6.496094 -2.316406 L 6.496094 -8.910156 L 11.328125 -8.910156 L 11.328125 -2.316406 Z M 6.496094 -2.316406 "/></g></g></g><g fill="#018f45" fill-opacity="1"><g transform="translate(206.783415, 104.865185)"><g><path d="M 2.417969 0 L 5.867188 0 L 5.867188 -2.316406 L 4.707031 -2.316406 L 4.707031 -21.421875 C 4.054688 -20.1875 3.097656 -18.855469 1.660156 -17.898438 C 2.039062 -17.292969 2.417969 -16.261719 2.417969 -14.472656 Z M 2.417969 0 "/></g></g></g><g fill="#018f45" fill-opacity="1"><g transform="translate(212.673428, 104.865185)"><g><path d="M 11.125 0.328125 L 12.160156 -0.90625 C 12.207031 -0.378906 12.8125 0 13.769531 0 L 14.449219 0 L 14.449219 -2.945312 C 14.449219 -7.175781 11.175781 -10.472656 6.542969 -10.472656 L 4.230469 -8.960938 L 4.230469 -2.316406 L -0.476562 -2.316406 C -1.207031 -2.316406 -1.761719 -1.8125 -1.761719 -1.15625 C -1.761719 -0.503906 -1.207031 0 -0.476562 0 L 8.960938 0 C 9.992188 0 10.472656 0.101562 11.125 0.328125 Z M 12.160156 -1.789062 C 11.175781 -2.140625 10.546875 -2.265625 9.289062 -2.316406 L 6.542969 -2.316406 L 6.542969 -8.054688 C 9.941406 -8.054688 12.160156 -6.015625 12.160156 -2.945312 Z M 12.160156 -1.789062 "/></g></g></g><g fill="#018f45" fill-opacity="1"><g transform="translate(227.121587, 104.865185)"><g><path d="M -0.855469 0 L 4.554688 0 C 5.6875 0 6.496094 -0.804688 6.496094 -1.9375 L 6.496094 -21.421875 C 5.839844 -20.164062 4.882812 -18.828125 3.449219 -17.871094 C 3.828125 -17.269531 4.203125 -16.238281 4.203125 -14.472656 L 4.203125 -2.316406 L -0.855469 -2.316406 C -1.234375 -2.316406 -1.761719 -2.039062 -1.761719 -1.660156 L -1.761719 -0.65625 C -1.761719 -0.277344 -1.234375 0 -0.855469 0 Z M -0.855469 0 "/></g></g></g><g fill="#018f45" fill-opacity="1"><g transform="translate(236.032123, 104.865185)"><g><path d="M 2.417969 0 L 4.707031 0 L 4.707031 -21.421875 C 4.054688 -20.1875 3.097656 -18.855469 1.660156 -17.898438 C 2.039062 -17.292969 2.417969 -16.261719 2.417969 -14.472656 Z M 2.417969 0 "/></g></g></g><g fill="#018f45" fill-opacity="1"><g transform="translate(171.768721, 146.633746)"><g><path d="M 9.941406 -9.0625 L 11.578125 -10.699219 L 9.941406 -12.335938 L 8.308594 -10.699219 Z M 7.878906 4.734375 L 11.753906 4.734375 C 14.472656 4.734375 17.21875 2.339844 17.21875 0 L 17.21875 -7.675781 C 16.5625 -6.445312 15.605469 -5.109375 14.171875 -4.152344 C 14.550781 -3.550781 14.925781 -2.515625 14.925781 -0.730469 C 14.925781 1.007812 13.46875 2.417969 11.753906 2.417969 L 7.878906 2.417969 C 6.140625 2.417969 4.734375 1.007812 4.734375 -0.730469 L 4.734375 -2.316406 C 4.027344 -1.308594 3.398438 -0.90625 2.417969 -0.554688 C 2.515625 2.390625 4.910156 4.734375 7.878906 4.734375 Z M 7.878906 4.734375 "/></g></g></g><g fill="#018f45" fill-opacity="1"><g transform="translate(191.402104, 146.633746)"><g><path d="M 1.335938 -20.289062 C 2.039062 -22.253906 5.335938 -23.410156 5.335938 -25.976562 L 5.335938 -27.386719 C 4.554688 -24.972656 1.335938 -24.214844 1.335938 -21.421875 Z M 2.417969 0 L 4.707031 0 L 4.707031 -21.421875 C 4.054688 -20.1875 3.097656 -18.855469 1.660156 -17.898438 C 2.039062 -17.292969 2.417969 -16.261719 2.417969 -14.472656 Z M 2.417969 0 "/></g></g></g><g fill="#018f45" fill-opacity="1"><g transform="translate(198.525496, 146.633746)"><g><path d="M 0.378906 5.992188 L 1.234375 5.992188 C 3.902344 5.992188 6.042969 3.726562 6.042969 0.65625 L 6.042969 -10.523438 C 5.109375 -9.894531 4.28125 -9.617188 3.726562 -9.515625 L 3.726562 0.65625 C 3.726562 2.644531 2.566406 3.800781 0.578125 3.800781 L -0.628906 3.800781 C 0.25 5.085938 0.351562 5.613281 0.378906 5.992188 Z M 0.378906 5.992188 "/></g></g></g><g fill="#018f45" fill-opacity="1"><g transform="translate(204.566542, 146.633746)"><g><path d="M 8.308594 -14.375 L 9.941406 -16.011719 L 8.308594 -17.644531 L 6.671875 -16.011719 Z M 12.082031 -14.375 L 13.71875 -16.011719 L 12.082031 -17.644531 L 10.445312 -16.011719 Z M -0.476562 0 L 14.878906 0 L 14.878906 -10.070312 C 14.878906 -10.699219 14.347656 -11.226562 13.71875 -11.226562 L 10.394531 -11.226562 C 7.375 -11.226562 4.960938 -8.785156 4.960938 -5.765625 L 4.960938 -2.316406 L -0.476562 -2.316406 C -0.855469 -2.316406 -1.132812 -2.039062 -1.132812 -1.660156 L -1.132812 -0.65625 C -1.132812 -0.277344 -0.855469 0 -0.476562 0 Z M 7.023438 -2.316406 L 7.023438 -5.765625 C 7.023438 -7.5 8.433594 -8.910156 10.167969 -8.910156 L 12.5625 -8.910156 L 12.5625 -2.316406 Z M 7.023438 -2.316406 "/></g></g></g><g fill="#018f45" fill-opacity="1"><g transform="translate(219.442608, 146.633746)"><g><path d="M -0.855469 0 L 4.554688 0 C 5.6875 0 6.496094 -0.804688 6.496094 -1.9375 L 6.496094 -21.421875 C 5.839844 -20.164062 4.882812 -18.828125 3.449219 -17.871094 C 3.828125 -17.269531 4.203125 -16.238281 4.203125 -14.472656 L 4.203125 -2.316406 L -0.855469 -2.316406 C -1.234375 -2.316406 -1.761719 -2.039062 -1.761719 -1.660156 L -1.761719 -0.65625 C -1.761719 -0.277344 -1.234375 0 -0.855469 0 Z M -0.855469 0 "/></g></g></g><g fill="#018f45" fill-opacity="1"><g transform="translate(228.353144, 146.633746)"><g><path d="M 2.417969 0 L 5.867188 0 L 5.867188 -2.316406 L 4.707031 -2.316406 L 4.707031 -21.421875 C 4.054688 -20.1875 3.097656 -18.855469 1.660156 -17.898438 C 2.039062 -17.292969 2.417969 -16.261719 2.417969 -14.472656 Z M 2.417969 0 "/></g></g></g><g fill="#018f45" fill-opacity="1"><g transform="translate(234.243157, 146.633746)"><g><path d="M -0.855469 0 L 10.722656 0 C 11.351562 0 11.882812 -0.527344 11.882812 -1.15625 L 11.882812 -10.523438 C 10.949219 -9.894531 10.121094 -9.617188 9.566406 -9.515625 L 9.566406 -2.316406 L -0.855469 -2.316406 C -1.234375 -2.316406 -1.761719 -2.039062 -1.761719 -1.660156 L -1.761719 -0.65625 C -1.761719 -0.277344 -1.234375 0 -0.855469 0 Z M 6.417969 6.292969 L 8.054688 4.65625 L 6.417969 3.019531 L 4.78125 4.65625 Z M 6.417969 6.292969 "/></g></g></g></svg>