<svg xmlns="http://www.w3.org/2000/svg" xmlns:xlink="http://www.w3.org/1999/xlink" width="600" zoomAndPan="magnify" viewBox="0 0 450 329.999987" height="440" preserveAspectRatio="xMidYMid meet" version="1.0"><defs><g/><clipPath id="8b4be40de2"><path d="M 227 75.273438 L 285 75.273438 L 285 148 L 227 148 Z M 227 75.273438 " clip-rule="nonzero"/></clipPath><clipPath id="dad7b8ef61"><path d="M 153.578125 75.273438 L 296.078125 75.273438 L 296.078125 184.023438 L 153.578125 184.023438 Z M 153.578125 75.273438 " clip-rule="nonzero"/></clipPath><clipPath id="711aac128d"><path d="M 164 75.273438 L 223 75.273438 L 223 148 L 164 148 Z M 164 75.273438 " clip-rule="nonzero"/></clipPath></defs><g clip-path="url(#8b4be40de2)"><path fill="#018f45" d="M 284.761719 119.691406 L 270.640625 75.152344 C 270.640625 75.152344 265.1875 79.933594 250.320312 82.199219 C 235.457031 84.464844 227.28125 93.015625 227.28125 93.015625 L 227.28125 147.875 C 238.921875 133.027344 284.761719 119.691406 284.761719 119.691406 " fill-opacity="1" fill-rule="nonzero"/></g><g clip-path="url(#dad7b8ef61)"><path fill="#018f45" d="M 290.867188 129.261719 L 257.703125 145.601562 C 259.484375 146.21875 261.277344 147.011719 262.691406 149.085938 C 265.414062 153.058594 261.832031 155.296875 261.457031 155.175781 C 261.320312 155.132812 256.375 152.582031 250.117188 149.34375 L 247.84375 150.464844 L 247.84375 150.472656 C 256.835938 153.71875 263.59375 164.828125 266.820312 167.511719 C 270.933594 170.917969 276.832031 169.875 280.761719 175.617188 C 284.695312 181.359375 279.511719 184.652344 278.976562 184.472656 C 278.511719 184.320312 237.875 163.644531 227.308594 157.886719 L 222.363281 157.886719 C 211.796875 163.644531 171.160156 184.320312 170.695312 184.472656 C 170.15625 184.652344 164.972656 181.359375 168.910156 175.617188 C 172.835938 169.875 178.738281 170.917969 182.851562 167.511719 C 186.078125 164.828125 192.835938 153.71875 201.824219 150.472656 L 201.824219 150.464844 L 199.554688 149.34375 C 193.296875 152.582031 188.347656 155.132812 188.214844 155.175781 C 187.839844 155.296875 184.257812 153.058594 186.980469 149.085938 C 188.390625 147.011719 190.183594 146.21875 191.96875 145.601562 L 158.800781 129.261719 L 153.589844 126.691406 L 155.382812 120.902344 L 169.476562 75.292969 L 174.953125 77 L 160.617188 123.394531 L 224.835938 153.929688 L 289.054688 123.394531 L 274.71875 77 L 280.195312 75.292969 L 294.289062 120.902344 L 296.078125 126.691406 L 290.867188 129.261719 " fill-opacity="1" fill-rule="nonzero"/></g><g clip-path="url(#711aac128d)"><path fill="#018f45" d="M 222.390625 147.875 L 222.390625 93.015625 C 222.390625 93.015625 214.214844 84.464844 199.347656 82.199219 C 184.484375 79.933594 179.03125 75.152344 179.03125 75.152344 L 164.90625 119.691406 C 164.90625 119.691406 210.746094 133.027344 222.390625 147.875 " fill-opacity="1" fill-rule="nonzero"/></g><g fill="#018f45" fill-opacity="1"><g transform="translate(119.554687, 246.368872)"><g><path d="M 13.925781 -12.691406 L 16.21875 -14.984375 L 13.925781 -17.277344 L 11.632812 -14.984375 Z M 11.035156 6.628906 L 16.464844 6.628906 C 20.273438 6.628906 24.117188 3.277344 24.117188 0 L 24.117188 -10.753906 C 23.199219 -9.027344 21.859375 -7.15625 19.847656 -5.816406 C 20.378906 -4.972656 20.90625 -3.527344 20.90625 -1.023438 C 20.90625 1.410156 18.863281 3.382812 16.464844 3.382812 L 11.035156 3.382812 C 8.601562 3.382812 6.628906 1.410156 6.628906 -1.023438 L 6.628906 -3.242188 C 5.640625 -1.832031 4.757812 -1.269531 3.382812 -0.777344 C 3.527344 3.347656 6.875 6.628906 11.035156 6.628906 Z M 11.035156 6.628906 "/></g></g></g><g fill="#018f45" fill-opacity="1"><g transform="translate(147.052708, 246.368872)"><g><path d="M 1.867188 -28.417969 C 2.855469 -31.167969 7.472656 -32.789062 7.472656 -36.382812 L 7.472656 -38.359375 C 6.382812 -34.972656 1.867188 -33.917969 1.867188 -30.003906 Z M 3.382812 0 L 6.59375 0 L 6.59375 -30.003906 C 5.675781 -28.277344 4.335938 -26.40625 2.328125 -25.066406 C 2.855469 -24.222656 3.382812 -22.777344 3.382812 -20.273438 Z M 3.382812 0 "/></g></g></g><g fill="#018f45" fill-opacity="1"><g transform="translate(157.029552, 246.368872)"><g><path d="M 0.527344 8.390625 L 1.726562 8.390625 C 5.464844 8.390625 8.460938 5.21875 8.460938 0.917969 L 8.460938 -14.738281 C 7.15625 -13.855469 5.992188 -13.46875 5.21875 -13.328125 L 5.21875 0.917969 C 5.21875 3.703125 3.597656 5.324219 0.8125 5.324219 L -0.882812 5.324219 C 0.351562 7.121094 0.492188 7.863281 0.527344 8.390625 Z M 0.527344 8.390625 "/></g></g></g><g fill="#018f45" fill-opacity="1"><g transform="translate(165.490489, 246.368872)"><g><path d="M 11.632812 -20.132812 L 13.925781 -22.421875 L 11.632812 -24.714844 L 9.34375 -22.421875 Z M 16.921875 -20.132812 L 19.214844 -22.421875 L 16.921875 -24.714844 L 14.632812 -22.421875 Z M -0.667969 0 L 20.835938 0 L 20.835938 -14.101562 C 20.835938 -14.984375 20.097656 -15.722656 19.214844 -15.722656 L 14.5625 -15.722656 C 10.332031 -15.722656 6.945312 -12.304688 6.945312 -8.074219 L 6.945312 -3.242188 L -0.667969 -3.242188 C -1.199219 -3.242188 -1.585938 -2.855469 -1.585938 -2.328125 L -1.585938 -0.917969 C -1.585938 -0.386719 -1.199219 0 -0.667969 0 Z M 9.835938 -3.242188 L 9.835938 -8.074219 C 9.835938 -10.507812 11.8125 -12.480469 14.242188 -12.480469 L 17.59375 -12.480469 L 17.59375 -3.242188 Z M 9.835938 -3.242188 "/></g></g></g><g fill="#018f45" fill-opacity="1"><g transform="translate(186.325533, 246.368872)"><g><path d="M -1.199219 0 L 6.382812 0 C 7.96875 0 9.097656 -1.128906 9.097656 -2.714844 L 9.097656 -30.003906 C 8.179688 -28.242188 6.839844 -26.371094 4.832031 -25.03125 C 5.359375 -24.1875 5.886719 -22.742188 5.886719 -20.273438 L 5.886719 -3.242188 L -1.199219 -3.242188 C -1.726562 -3.242188 -2.46875 -2.855469 -2.46875 -2.328125 L -2.46875 -0.917969 C -2.46875 -0.386719 -1.726562 0 -1.199219 0 Z M -1.199219 0 "/></g></g></g><g fill="#018f45" fill-opacity="1"><g transform="translate(198.805405, 246.368872)"><g><path d="M 3.382812 0 L 8.214844 0 L 8.214844 -3.242188 L 6.59375 -3.242188 L 6.59375 -30.003906 C 5.675781 -28.277344 4.335938 -26.40625 2.328125 -25.066406 C 2.855469 -24.222656 3.382812 -22.777344 3.382812 -20.273438 Z M 3.382812 0 "/></g></g></g><g fill="#018f45" fill-opacity="1"><g transform="translate(207.054809, 246.368872)"><g><path d="M -1.199219 0 L 15.019531 0 C 15.902344 0 16.640625 -0.742188 16.640625 -1.621094 L 16.640625 -14.738281 C 15.335938 -13.855469 14.171875 -13.46875 13.398438 -13.328125 L 13.398438 -3.242188 L -1.199219 -3.242188 C -1.726562 -3.242188 -2.46875 -2.855469 -2.46875 -2.328125 L -2.46875 -0.917969 C -2.46875 -0.386719 -1.726562 0 -1.199219 0 Z M 8.992188 8.8125 L 11.28125 6.523438 L 8.992188 4.230469 L 6.699219 6.523438 Z M 8.992188 8.8125 "/></g></g></g><g fill="#018f45" fill-opacity="1"><g transform="translate(227.079016, 246.368872)"><g/></g></g><g fill="#018f45" fill-opacity="1"><g transform="translate(238.007722, 246.368872)"><g><path d="M 0.527344 8.390625 L 1.726562 8.390625 C 5.464844 8.390625 8.460938 5.21875 8.460938 0.917969 L 8.460938 -14.738281 C 7.15625 -13.855469 5.992188 -13.46875 5.21875 -13.328125 L 5.21875 0.917969 C 5.21875 3.703125 3.597656 5.324219 0.8125 5.324219 L -0.882812 5.324219 C 0.351562 7.121094 0.492188 7.863281 0.527344 8.390625 Z M 0.527344 8.390625 "/></g></g></g><g fill="#018f45" fill-opacity="1"><g transform="translate(246.468659, 246.368872)"><g><path d="M 19.109375 1.691406 C 21.578125 4.6875 30.390625 4.019531 30.390625 -5.324219 C 30.390625 -11.5625 25.878906 -15.6875 19.109375 -15.6875 L 19.109375 -26.335938 C 18.191406 -24.574219 16.816406 -22.742188 14.84375 -21.402344 C 15.371094 -20.449219 15.972656 -18.722656 15.828125 -15.722656 L 5.886719 -15.722656 L 5.886719 -3.242188 L -1.199219 -3.242188 C -1.726562 -3.242188 -2.46875 -2.855469 -2.46875 -2.328125 L -2.46875 -0.917969 C -2.46875 -0.386719 -1.726562 0 -1.199219 0 L 19.109375 0 L 19.109375 -12.445312 C 24.292969 -12.445312 27.113281 -9.835938 27.113281 -5.183594 C 27.113281 -1.515625 24.292969 1.691406 19.109375 1.691406 Z M 9.097656 -3.242188 L 9.097656 -12.480469 L 15.867188 -12.480469 L 15.867188 -3.242188 Z M 9.097656 -3.242188 "/></g></g></g><g fill="#018f45" fill-opacity="1"><g transform="translate(279.501547, 246.368872)"><g><path d="M 3.382812 0 L 8.214844 0 L 8.214844 -3.242188 L 6.59375 -3.242188 L 6.59375 -30.003906 C 5.675781 -28.277344 4.335938 -26.40625 2.328125 -25.066406 C 2.855469 -24.222656 3.382812 -22.777344 3.382812 -20.273438 Z M 3.382812 0 "/></g></g></g><g fill="#018f45" fill-opacity="1"><g transform="translate(287.750951, 246.368872)"><g><path d="M 15.582031 0.457031 L 17.027344 -1.269531 C 17.097656 -0.527344 17.945312 0 19.285156 0 L 20.238281 0 L 20.238281 -4.125 C 20.238281 -10.046875 15.652344 -14.667969 9.167969 -14.667969 L 5.921875 -12.550781 L 5.921875 -3.242188 L -0.667969 -3.242188 C -1.691406 -3.242188 -2.46875 -2.539062 -2.46875 -1.621094 C -2.46875 -0.707031 -1.691406 0 -0.667969 0 L 12.550781 0 C 13.996094 0 14.667969 0.140625 15.582031 0.457031 Z M 17.027344 -2.503906 C 15.652344 -2.996094 14.773438 -3.171875 13.007812 -3.242188 L 9.167969 -3.242188 L 9.167969 -11.28125 C 13.925781 -11.28125 17.027344 -8.425781 17.027344 -4.125 Z M 17.027344 -2.503906 "/></g></g></g><g fill="#018f45" fill-opacity="1"><g transform="translate(307.986678, 246.368872)"><g><path d="M -1.199219 0 L 6.382812 0 C 7.96875 0 9.097656 -1.128906 9.097656 -2.714844 L 9.097656 -30.003906 C 8.179688 -28.242188 6.839844 -26.371094 4.832031 -25.03125 C 5.359375 -24.1875 5.886719 -22.742188 5.886719 -20.273438 L 5.886719 -3.242188 L -1.199219 -3.242188 C -1.726562 -3.242188 -2.46875 -2.855469 -2.46875 -2.328125 L -2.46875 -0.917969 C -2.46875 -0.386719 -1.726562 0 -1.199219 0 Z M -1.199219 0 "/></g></g></g><g fill="#018f45" fill-opacity="1"><g transform="translate(320.466551, 246.368872)"><g><path d="M 3.382812 0 L 6.59375 0 L 6.59375 -30.003906 C 5.675781 -28.277344 4.335938 -26.40625 2.328125 -25.066406 C 2.855469 -24.222656 3.382812 -22.777344 3.382812 -20.273438 Z M 3.382812 0 "/></g></g></g></svg>