<svg version="1.1" id="Layer_1" xmlns="http://www.w3.org/2000/svg" xmlns:xlink="http://www.w3.org/1999/xlink" x="0px" y="0px"
	 width="100%" viewBox="0 0 500 500" enable-background="new 0 0 500 500" xml:space="preserve">
<path fill="#000000" opacity="1.000000" stroke="none" 
	d="
M315.000000,501.000000 
	C210.000031,501.000000 105.500053,501.000000 1.000056,501.000000 
	C1.000037,334.333405 1.000037,167.666794 1.000019,1.000146 
	C167.666565,1.000097 334.333130,1.000097 500.999756,1.000049 
	C500.999847,167.666519 500.999847,334.333038 500.999939,500.999786 
	C439.166656,501.000000 377.333344,501.000000 315.000000,501.000000 
M368.120087,334.915588 
	C366.067688,334.862549 364.015289,334.809509 362.003113,334.002563 
	C361.907318,328.803711 358.685669,325.092041 354.861877,322.712952 
	C352.223877,321.071655 348.155640,320.986450 344.925568,321.487854 
	C343.945709,321.639954 343.178284,326.053741 343.093994,328.542023 
	C342.837067,336.124115 342.985199,336.129120 334.791107,335.320160 
	C334.190125,335.185730 333.589142,335.051300 332.969452,335.022430 
	C332.969452,335.022430 333.074677,335.043030 332.998199,334.101135 
	C332.998199,322.791565 332.998199,311.482025 332.998199,300.172455 
	C332.624939,300.095520 332.251678,300.018585 331.878418,299.941620 
	C331.638855,300.645355 331.399292,301.349121 330.761353,302.644165 
	C326.674469,304.799103 326.466278,308.073853 327.998718,312.839691 
	C327.987183,320.216064 327.914215,327.593262 328.011810,334.968170 
	C328.033417,336.600647 328.657959,338.225189 329.937073,339.948853 
	C343.085846,339.965820 356.235291,340.046112 369.382538,339.913055 
	C370.886108,339.897858 372.377655,338.689270 373.987762,337.092743 
	C373.987762,325.267090 373.987762,313.441437 373.987762,301.615784 
	C373.648224,301.579071 373.308716,301.542389 372.969177,301.505676 
	C372.693939,302.033752 372.418671,302.561859 371.809540,303.651093 
	C370.078918,305.367706 367.742828,306.822784 369.026917,310.843140 
	C368.987030,318.899078 368.947174,326.955048 369.005951,335.004028 
	C369.005951,335.004028 368.999329,334.905334 368.120087,334.915588 
M151.024902,311.696198 
	C151.011398,319.785156 150.953568,327.874542 151.029465,335.962646 
	C151.041641,337.260590 151.651245,338.552948 152.747482,339.943542 
	C153.513611,339.907135 154.279724,339.870728 155.763397,339.405060 
	C155.835739,327.285767 155.924881,315.166473 155.933777,303.047150 
	C155.934250,302.400421 155.258530,301.753174 154.257614,301.383331 
	C152.909027,302.989197 151.560440,304.595062 149.972534,306.485931 
	C150.267654,307.609070 150.673462,309.153412 151.024902,311.696198 
M382.192993,310.363556 
	C382.155243,315.175140 382.001129,319.989410 382.111755,324.797577 
	C382.227264,329.816437 382.597748,334.829437 383.685150,339.949951 
	C384.796021,339.915710 385.906860,339.881470 387.856689,339.597015 
	C387.905151,327.293610 387.979858,314.990112 387.923523,302.687195 
	C387.920776,302.080139 386.774872,301.478333 385.814270,301.522522 
	C384.614746,304.181641 383.415222,306.840790 382.192993,310.363556 
M220.062729,310.974426 
	C220.036667,319.461487 219.972504,327.948761 220.029785,336.435272 
	C220.037491,337.575287 220.657593,338.711151 221.927048,339.952515 
	C229.900558,339.966888 237.875412,339.901520 245.846863,340.036682 
	C248.846695,340.087494 250.091919,338.924896 250.014008,335.948059 
	C249.909729,331.963959 250.143188,327.964630 249.878632,323.995361 
	C249.809341,322.955841 248.434738,322.003296 247.659607,321.010803 
	C246.783859,322.018158 245.332809,322.931915 245.150574,324.052094 
	C244.755356,326.481384 245.437546,329.123169 244.851654,331.471588 
	C244.437485,333.131744 242.706207,335.674561 241.492096,335.715363 
	C236.090088,335.896820 230.662582,335.318817 225.055984,334.089417 
	C225.055984,323.147217 225.055984,312.205048 225.055984,301.262848 
	C224.644333,301.214355 224.232681,301.165863 223.821014,301.117340 
	C223.384857,301.742310 222.948685,302.367310 222.008743,303.461395 
	C220.998810,304.289001 219.988876,305.116638 218.795929,306.094238 
	C219.228683,307.358368 219.687714,308.699188 220.062729,310.974426 
M206.982407,311.842804 
	C206.919250,319.563110 206.856094,327.283417 206.113190,335.388000 
	C204.246826,335.591736 202.380463,335.795471 199.982895,336.057220 
	C199.982895,331.567261 200.208771,327.746185 199.875900,323.974396 
	C199.735382,322.382172 198.818192,320.171906 197.568375,319.478607 
	C190.836853,315.744385 181.149048,321.656342 180.994278,329.359802 
	C180.851547,336.464172 180.284729,336.871521 171.893982,335.274506 
	C171.893982,330.726624 171.893982,326.022430 171.893982,321.305756 
	C167.964294,321.073120 166.882584,322.674591 166.972946,325.769653 
	C167.118622,330.758728 166.896957,335.758545 167.043076,340.747589 
	C167.142624,344.147217 165.459274,345.915863 162.426193,346.754791 
	C161.279480,347.071991 160.107880,347.299133 158.947617,347.567322 
	C158.826782,348.080597 158.705933,348.593872 158.585098,349.107117 
	C160.523224,349.848785 162.499756,351.304535 164.392517,351.202728 
	C170.973862,350.848663 171.376282,345.332550 172.533981,339.990173 
	C174.282043,339.990173 176.078583,339.989471 177.875107,339.990326 
	C187.695450,339.995026 197.517105,340.080322 207.334778,339.921021 
	C208.855560,339.896362 210.358185,338.752716 211.991837,337.169617 
	C211.974060,326.684814 211.991638,316.199677 211.899353,305.715515 
	C211.885956,304.192566 211.346939,302.674194 210.365463,301.326843 
	C207.843155,304.023010 203.996872,306.266327 206.982407,311.842804 
M246.796844,135.306076 
	C238.789215,128.108749 229.299484,124.103477 218.844223,121.935570 
	C212.315430,120.581825 205.840134,118.896706 199.442047,117.015923 
	C196.086334,116.029480 192.948685,114.301239 189.503586,112.818024 
	C187.365295,119.482178 185.275070,125.851562 183.278397,132.250153 
	C179.424911,144.599243 175.566620,156.947845 171.910477,169.355652 
	C171.616440,170.353516 172.569534,172.594009 173.442078,172.919525 
	C179.456009,175.163208 185.684708,176.833115 191.691528,179.093582 
	C211.031372,186.371460 230.375381,193.693619 246.346527,208.769318 
	C246.897507,207.405838 247.922150,206.044601 247.928604,204.678528 
	C248.029709,183.284576 248.018524,161.889969 247.959076,140.495697 
	C247.954849,138.976669 247.373764,137.459259 246.796844,135.306076 
M175.839539,246.601303 
	C175.302231,247.949173 174.231415,249.343628 174.344162,250.634735 
	C174.547867,252.967636 175.102051,255.448975 176.265594,257.422882 
	C176.678696,258.123688 179.433304,257.932098 180.868713,257.430939 
	C183.160461,256.630829 185.229584,255.205215 187.416077,254.089600 
	C207.061523,244.065948 226.644073,233.913681 246.444321,224.205460 
	C249.009964,222.947525 253.256882,222.892624 255.793823,224.153717 
	C276.373566,234.383759 296.708099,245.105942 317.183929,255.547623 
	C319.893585,256.929413 322.804077,259.999512 326.068695,256.361969 
	C329.405853,252.643585 327.350952,249.284988 325.048340,246.182663 
	C323.818542,244.525803 322.296356,242.631561 320.486481,241.935303 
	C310.704041,238.172028 302.804352,232.249069 296.276062,223.955063 
	C292.797546,219.535675 287.829865,216.288406 283.534332,212.512115 
	C288.184692,213.691315 292.308502,215.969177 296.636292,217.751587 
	C298.103027,218.355652 301.194397,218.286621 301.599182,217.510864 
	C302.420654,215.936340 302.533722,213.397705 301.808807,211.755203 
	C300.810638,209.493515 298.765961,207.693695 297.005646,205.490784 
	C311.138458,198.534073 325.843750,191.052933 340.791321,184.092056 
	C345.037140,182.114838 346.172394,179.964417 344.558624,175.793335 
	C343.257050,172.429337 342.163727,168.978958 341.103363,165.528397 
	C336.049866,149.083115 331.041565,132.623962 326.010529,116.171761 
	C325.211304,113.558151 323.918549,112.461426 320.864960,113.455185 
	C317.770691,114.462196 317.567383,116.246971 318.328278,118.735519 
	C321.011414,127.510643 323.718750,136.278427 326.437775,145.042511 
	C329.634644,155.346741 332.853271,165.644226 336.113647,176.108948 
	C311.229614,187.989304 286.406921,199.323532 262.125031,211.717331 
	C253.775330,215.979111 246.790298,217.383774 239.172058,211.471970 
	C238.534698,210.977356 237.742050,210.672058 237.000137,210.324509 
	C214.396011,199.735901 191.791107,189.148956 169.179947,178.575348 
	C166.843567,177.482803 165.684509,176.440170 166.698685,173.272552 
	C172.434448,155.357834 177.770386,137.315521 183.390930,119.363136 
	C184.213699,116.735199 184.960297,114.745926 181.445114,113.754166 
	C178.323105,112.873344 176.510178,113.222015 175.423325,116.909874 
	C169.630127,136.566635 163.772247,156.211243 157.416962,175.690460 
	C155.889038,180.373642 156.781464,182.143555 160.993210,184.160141 
	C175.703201,191.203339 190.216003,198.658432 204.621887,205.866028 
	C203.270752,207.448990 202.165527,208.864029 200.934891,210.159973 
	C198.559219,212.661758 197.820663,215.844391 200.314224,217.983994 
	C201.378937,218.897568 204.859085,217.382706 207.055054,216.504684 
	C210.754822,215.025421 214.305786,213.174042 218.922806,211.008514 
	C213.205399,216.566330 208.519669,221.107712 203.849350,225.664886 
	C198.721405,230.668610 194.775482,237.284073 187.044678,238.823212 
	C182.359589,239.755981 179.055450,242.352753 175.839539,246.601303 
M327.571655,160.967865 
	C323.060883,146.754059 318.577606,132.531433 314.026489,118.330551 
	C312.059357,112.192619 311.875671,112.314255 305.769104,114.961967 
	C301.283112,116.907013 296.613373,118.483856 291.927368,119.900139 
	C282.665009,122.699585 273.061340,124.591255 264.123138,128.168396 
	C257.559448,130.795258 253.287827,135.485001 253.701050,144.360901 
	C254.614655,163.984207 253.982040,183.679260 253.997162,203.345047 
	C253.998383,204.933594 254.130005,206.522049 254.218216,208.495071 
	C276.684479,189.014664 304.284241,181.249710 330.917572,171.605698 
	C329.827148,167.967667 328.884796,164.823669 327.571655,160.967865 
M279.893250,343.953461 
	C279.638580,341.057495 280.689819,339.819550 283.857330,339.922974 
	C290.772949,340.148773 297.701080,339.992798 305.101501,339.992798 
	C305.101501,334.239044 305.101501,329.307495 305.101501,324.390869 
	C310.492371,324.361481 315.802734,328.116150 315.751007,332.355377 
	C315.721924,334.737854 314.428467,337.626068 312.737823,339.323395 
	C310.980286,341.087952 308.057617,341.691925 305.515228,342.862946 
	C308.992493,346.152802 312.505615,345.157532 315.962616,343.092560 
	C321.106842,340.019653 320.589508,334.649445 319.898407,330.182404 
	C318.692444,322.387604 312.042694,320.000458 304.714905,318.344177 
	C304.714905,314.376984 304.714905,310.556702 304.714905,306.736389 
	C304.030945,306.633209 303.346985,306.529999 302.662994,306.426819 
	C301.659332,310.389221 300.655670,314.351593 299.431641,319.184052 
	C296.114227,319.184052 291.724518,319.184052 286.804321,319.184052 
	C286.804321,325.118347 286.804321,330.370514 286.804321,335.665833 
	C284.336151,335.665833 282.425934,335.665833 279.813232,335.665833 
	C279.813232,330.664368 279.813232,325.971863 279.813232,321.279358 
	C279.178619,321.040405 278.544006,320.801453 277.909393,320.562500 
	C276.944916,322.168488 275.335541,323.702698 275.147156,325.395081 
	C274.725800,329.179993 275.011658,333.043762 275.010803,336.875397 
	C275.008850,345.419983 275.009216,345.419983 266.971313,347.713501 
	C268.318848,351.595825 271.068604,352.911804 274.400787,350.810760 
	C276.567505,349.444550 277.932312,346.806488 279.893250,343.953461 
M120.184464,341.070251 
	C119.982002,339.815094 119.779541,338.559937 119.585030,337.354065 
	C114.462257,337.457031 114.215759,340.056244 115.931793,343.548767 
	C119.839424,351.501678 127.275970,348.357025 133.465240,348.945190 
	C138.062164,349.382050 141.633530,346.858032 142.435242,342.718231 
	C143.337219,338.060608 142.642761,333.093811 142.642761,327.769562 
	C138.676163,330.015747 136.663620,332.082214 137.794815,336.386780 
	C138.289703,338.269989 137.671066,341.398743 136.332657,342.631836 
	C132.341599,346.308929 124.826538,345.606384 120.184464,341.070251 
M151.611557,299.842010 
	C153.585373,296.966248 158.558807,295.616211 156.495331,290.315521 
	C152.426331,292.624084 149.684174,295.282410 151.611557,299.842010 
z"/>
<path fill="#069148" opacity="1.000000" stroke="none" 
	d="
M176.106705,246.327133 
	C179.055450,242.352753 182.359589,239.755981 187.044678,238.823212 
	C194.775482,237.284073 198.721405,230.668610 203.849350,225.664886 
	C208.519669,221.107712 213.205399,216.566330 218.922806,211.008514 
	C214.305786,213.174042 210.754822,215.025421 207.055054,216.504684 
	C204.859085,217.382706 201.378937,218.897568 200.314224,217.983994 
	C197.820663,215.844391 198.559219,212.661758 200.934891,210.159973 
	C202.165527,208.864029 203.270752,207.448990 204.621887,205.866028 
	C190.216003,198.658432 175.703201,191.203339 160.993210,184.160141 
	C156.781464,182.143555 155.889038,180.373642 157.416962,175.690460 
	C163.772247,156.211243 169.630127,136.566635 175.423325,116.909874 
	C176.510178,113.222015 178.323105,112.873344 181.445114,113.754166 
	C184.960297,114.745926 184.213699,116.735199 183.390930,119.363136 
	C177.770386,137.315521 172.434448,155.357834 166.698685,173.272552 
	C165.684509,176.440170 166.843567,177.482803 169.179947,178.575348 
	C191.791107,189.148956 214.396011,199.735901 237.000137,210.324509 
	C237.742050,210.672058 238.534698,210.977356 239.172058,211.471970 
	C246.790298,217.383774 253.775330,215.979111 262.125031,211.717331 
	C286.406921,199.323532 311.229614,187.989304 336.113647,176.108948 
	C332.853271,165.644226 329.634644,155.346741 326.437775,145.042511 
	C323.718750,136.278427 321.011414,127.510643 318.328278,118.735519 
	C317.567383,116.246971 317.770691,114.462196 320.864960,113.455185 
	C323.918549,112.461426 325.211304,113.558151 326.010529,116.171761 
	C331.041565,132.623962 336.049866,149.083115 341.103363,165.528397 
	C342.163727,168.978958 343.257050,172.429337 344.558624,175.793335 
	C346.172394,179.964417 345.037140,182.114838 340.791321,184.092056 
	C325.843750,191.052933 311.138458,198.534073 297.005646,205.490784 
	C298.765961,207.693695 300.810638,209.493515 301.808807,211.755203 
	C302.533722,213.397705 302.420654,215.936340 301.599182,217.510864 
	C301.194397,218.286621 298.103027,218.355652 296.636292,217.751587 
	C292.308502,215.969177 288.184692,213.691315 283.534332,212.512115 
	C287.829865,216.288406 292.797546,219.535675 296.276062,223.955063 
	C302.804352,232.249069 310.704041,238.172028 320.486481,241.935303 
	C322.296356,242.631561 323.818542,244.525803 325.048340,246.182663 
	C327.350952,249.284988 329.405853,252.643585 326.068695,256.361969 
	C322.804077,259.999512 319.893585,256.929413 317.183929,255.547623 
	C296.708099,245.105942 276.373566,234.383759 255.793823,224.153717 
	C253.256882,222.892624 249.009964,222.947525 246.444321,224.205460 
	C226.644073,233.913681 207.061523,244.065948 187.416077,254.089600 
	C185.229584,255.205215 183.160461,256.630829 180.868713,257.430939 
	C179.433304,257.932098 176.678696,258.123688 176.265594,257.422882 
	C175.102051,255.448975 174.547867,252.967636 174.344162,250.634735 
	C174.231415,249.343628 175.302231,247.949173 176.106705,246.327133 
z"/>
<path fill="#029046" opacity="1.000000" stroke="none" 
	d="
M327.757050,161.323761 
	C328.884796,164.823669 329.827148,167.967667 330.917572,171.605698 
	C304.284241,181.249710 276.684479,189.014664 254.218216,208.495071 
	C254.130005,206.522049 253.998383,204.933594 253.997162,203.345047 
	C253.982040,183.679260 254.614655,163.984207 253.701050,144.360901 
	C253.287827,135.485001 257.559448,130.795258 264.123138,128.168396 
	C273.061340,124.591255 282.665009,122.699585 291.927368,119.900139 
	C296.613373,118.483856 301.283112,116.907013 305.769104,114.961967 
	C311.875671,112.314255 312.059357,112.192619 314.026489,118.330551 
	C318.577606,132.531433 323.060883,146.754059 327.757050,161.323761 
z"/>
<path fill="#028F46" opacity="1.000000" stroke="none" 
	d="
M245.936768,208.066132 
	C230.375381,193.693619 211.031372,186.371460 191.691528,179.093582 
	C185.684708,176.833115 179.456009,175.163208 173.442078,172.919525 
	C172.569534,172.594009 171.616440,170.353516 171.910477,169.355652 
	C175.566620,156.947845 179.424911,144.599243 183.278397,132.250153 
	C185.275070,125.851562 187.365295,119.482178 189.503586,112.818024 
	C192.948685,114.301239 196.086334,116.029480 199.442047,117.015923 
	C205.840134,118.896706 212.315430,120.581825 218.844223,121.935570 
	C229.299484,124.103477 238.789215,128.108749 246.908051,136.095169 
	C247.014404,158.743729 247.035477,180.603271 246.958435,202.462479 
	C246.951859,204.331543 246.292755,206.198303 245.936768,208.066132 
z"/>
<path fill="#069148" opacity="1.000000" stroke="none" 
	d="
M279.774811,344.345856 
	C277.932312,346.806488 276.567505,349.444550 274.400787,350.810760 
	C271.068604,352.911804 268.318848,351.595825 266.971313,347.713501 
	C275.009216,345.419983 275.008850,345.419983 275.010803,336.875397 
	C275.011658,333.043762 274.725800,329.179993 275.147156,325.395081 
	C275.335541,323.702698 276.944916,322.168488 277.909393,320.562500 
	C278.544006,320.801453 279.178619,321.040405 279.813232,321.279358 
	C279.813232,325.971863 279.813232,330.664368 279.813232,335.665833 
	C282.425934,335.665833 284.336151,335.665833 286.804321,335.665833 
	C286.804321,330.370514 286.804321,325.118347 286.804321,319.184052 
	C291.724518,319.184052 296.114227,319.184052 299.431641,319.184052 
	C300.655670,314.351593 301.659332,310.389221 302.662994,306.426819 
	C303.346985,306.529999 304.030945,306.633209 304.714905,306.736389 
	C304.714905,310.556702 304.714905,314.376984 304.714905,318.344177 
	C312.042694,320.000458 318.692444,322.387604 319.898407,330.182404 
	C320.589508,334.649445 321.106842,340.019653 315.962616,343.092560 
	C312.505615,345.157532 308.992493,346.152802 305.515228,342.862946 
	C308.057617,341.691925 310.980286,341.087952 312.737823,339.323395 
	C314.428467,337.626068 315.721924,334.737854 315.751007,332.355377 
	C315.802734,328.116150 310.492371,324.361481 305.101501,324.390869 
	C305.101501,329.307495 305.101501,334.239044 305.101501,339.992798 
	C297.701080,339.992798 290.772949,340.148773 283.857330,339.922974 
	C280.689819,339.819550 279.638580,341.057495 279.774811,344.345856 
M299.996216,334.995819 
	C299.996216,334.995819 299.904480,334.997467 300.724213,334.711792 
	C300.451141,331.140472 300.178070,327.569183 300.000885,323.999390 
	C300.000885,323.999390 299.999512,324.095276 299.738586,323.302734 
	C297.153229,323.610718 294.567871,323.918671 291.988190,325.101929 
	C291.982300,328.320984 291.976440,331.540039 291.477936,335.286224 
	C294.316589,335.158844 297.155212,335.031464 299.996216,334.995819 
z"/>
<path fill="#069148" opacity="1.000000" stroke="none" 
	d="
M211.869217,338.126526 
	C210.358185,338.752716 208.855560,339.896362 207.334778,339.921021 
	C197.517105,340.080322 187.695450,339.995026 177.875107,339.990326 
	C176.078583,339.989471 174.282043,339.990173 172.533981,339.990173 
	C171.376282,345.332550 170.973862,350.848663 164.392517,351.202728 
	C162.499756,351.304535 160.523224,349.848785 158.585098,349.107117 
	C158.705933,348.593872 158.826782,348.080597 158.947617,347.567322 
	C160.107880,347.299133 161.279480,347.071991 162.426193,346.754791 
	C165.459274,345.915863 167.142624,344.147217 167.043076,340.747589 
	C166.896957,335.758545 167.118622,330.758728 166.972946,325.769653 
	C166.882584,322.674591 167.964294,321.073120 171.893982,321.305756 
	C171.893982,326.022430 171.893982,330.726624 171.893982,335.274506 
	C180.284729,336.871521 180.851547,336.464172 180.994278,329.359802 
	C181.149048,321.656342 190.836853,315.744385 197.568375,319.478607 
	C198.818192,320.171906 199.735382,322.382172 199.875900,323.974396 
	C200.208771,327.746185 199.982895,331.567261 199.982895,336.057220 
	C202.380463,335.795471 204.246826,335.591736 206.794525,334.936279 
	C207.349335,326.618134 207.222809,318.751678 207.096283,310.885223 
	C203.996872,306.266327 207.843155,304.023010 210.704910,301.698486 
	C211.076218,310.199341 211.037064,318.329681 211.170761,326.457184 
	C211.234802,330.349762 211.626129,334.236938 211.869217,338.126526 
M186.161758,326.924957 
	C185.688644,329.722290 185.215546,332.519653 184.696609,335.587982 
	C188.629349,335.587982 191.635345,335.587982 194.821655,335.587982 
	C194.821655,331.410645 194.821655,327.653931 194.821655,322.997986 
	C191.748123,324.171021 189.116241,325.175476 186.161758,326.924957 
z"/>
<path fill="#069148" opacity="1.000000" stroke="none" 
	d="
M328.095093,311.878998 
	C326.466278,308.073853 326.674469,304.799103 331.256592,302.637451 
	C331.849609,311.737244 331.898132,320.844849 332.089264,329.949432 
	C332.125031,331.653442 332.731567,333.345459 333.074707,335.043030 
	C333.074677,335.043030 332.969452,335.022430 333.054810,335.285004 
	C333.759766,335.667480 334.379364,335.787384 334.998993,335.907288 
	C342.985199,336.129120 342.837067,336.124115 343.093994,328.542023 
	C343.178284,326.053741 343.945709,321.639954 344.925568,321.487854 
	C348.155640,320.986450 352.223877,321.071655 354.861877,322.712952 
	C358.685669,325.092041 361.907318,328.803711 362.087494,334.793762 
	C364.447693,335.358429 366.723511,335.131866 368.999329,334.905334 
	C368.999329,334.905334 369.005951,335.004028 369.353333,334.821686 
	C369.506561,326.386627 369.312439,318.133881 369.118347,309.881165 
	C367.742828,306.822784 370.078918,305.367706 372.218262,303.695801 
	C372.779205,310.463989 372.873505,317.189453 373.103485,323.910309 
	C373.264709,328.621490 373.611084,333.326355 373.874756,338.034027 
	C372.377655,338.689270 370.886108,339.897858 369.382538,339.913055 
	C356.235291,340.046112 343.085846,339.965820 329.478638,339.442749 
	C329.025452,335.466827 329.144745,331.992554 329.009796,328.528168 
	C328.793457,322.975006 328.408691,317.428375 328.095093,311.878998 
M347.632172,326.365295 
	C347.386719,329.400848 347.141235,332.436432 346.863098,335.875732 
	C350.708496,335.875732 353.745544,335.875732 356.792633,335.875732 
	C357.035706,330.018860 354.085480,326.600342 347.632172,326.365295 
z"/>
<path fill="#029046" opacity="1.000000" stroke="none" 
	d="
M225.244293,335.015320 
	C230.662582,335.318817 236.090088,335.896820 241.492096,335.715363 
	C242.706207,335.674561 244.437485,333.131744 244.851654,331.471588 
	C245.437546,329.123169 244.755356,326.481384 245.150574,324.052094 
	C245.332809,322.931915 246.783859,322.018158 247.659607,321.010803 
	C248.434738,322.003296 249.809341,322.955841 249.878632,323.995361 
	C250.143188,327.964630 249.909729,331.963959 250.014008,335.948059 
	C250.091919,338.924896 248.846695,340.087494 245.846863,340.036682 
	C237.875412,339.901520 229.900558,339.966888 221.470184,339.443237 
	C221.017166,334.824677 221.132797,330.711731 220.997421,326.607056 
	C220.815186,321.081360 220.439438,315.562073 220.146729,310.040039 
	C219.687714,308.699188 219.228683,307.358368 218.795929,306.094238 
	C219.988876,305.116638 220.998810,304.289001 222.585144,303.509857 
	C223.442093,305.298126 223.941833,307.035034 223.964767,308.778259 
	C224.057648,315.836426 223.925995,322.898041 224.060760,329.954865 
	C224.093109,331.648590 224.830917,333.328857 225.244293,335.015320 
z"/>
<path fill="#069148" opacity="1.000000" stroke="none" 
	d="
M120.337708,341.434418 
	C124.826538,345.606384 132.341599,346.308929 136.332657,342.631836 
	C137.671066,341.398743 138.289703,338.269989 137.794815,336.386780 
	C136.663620,332.082214 138.676163,330.015747 142.642761,327.769562 
	C142.642761,333.093811 143.337219,338.060608 142.435242,342.718231 
	C141.633530,346.858032 138.062164,349.382050 133.465240,348.945190 
	C127.275970,348.357025 119.839424,351.501678 115.931793,343.548767 
	C114.215759,340.056244 114.462257,337.457031 119.585030,337.354065 
	C119.779541,338.559937 119.982002,339.815094 120.337708,341.434418 
z"/>
<path fill="#029046" opacity="1.000000" stroke="none" 
	d="
M387.017761,339.847229 
	C385.906860,339.881470 384.796021,339.915710 383.278687,339.439362 
	C382.653412,329.119141 382.434570,319.309540 382.215759,309.499908 
	C383.415222,306.840790 384.614746,304.181641 386.311646,301.484192 
	C386.878601,314.246307 386.948181,327.046783 387.017761,339.847229 
z"/>
<path fill="#069148" opacity="1.000000" stroke="none" 
	d="
M155.045853,339.834320 
	C154.279724,339.870728 153.513611,339.907135 152.375214,339.438171 
	C152.006439,334.103790 152.132645,329.270905 151.978073,324.446991 
	C151.831070,319.859039 151.390671,315.280457 151.079285,310.697754 
	C150.673462,309.153412 150.267654,307.609070 149.972534,306.485931 
	C151.560440,304.595062 152.909027,302.989197 154.578674,301.706421 
	C154.948441,314.631134 154.997147,327.232727 155.045853,339.834320 
z"/>
<path fill="#7AC59E" opacity="1.000000" stroke="none" 
	d="
M246.141647,208.417725 
	C246.292755,206.198303 246.951859,204.331543 246.958435,202.462479 
	C247.035477,180.603271 247.014404,158.743729 247.040070,136.412674 
	C247.373764,137.459259 247.954849,138.976669 247.959076,140.495697 
	C248.018524,161.889969 248.029709,183.284576 247.928604,204.678528 
	C247.922150,206.044601 246.897507,207.405838 246.141647,208.417725 
z"/>
<path fill="#F2F8F6" opacity="1.000000" stroke="none" 
	d="
M387.437225,339.722107 
	C386.948181,327.046783 386.878601,314.246307 386.485138,301.159973 
	C386.774872,301.478333 387.920776,302.080139 387.923523,302.687195 
	C387.979858,314.990112 387.905151,327.293610 387.437225,339.722107 
z"/>
<path fill="#34A56A" opacity="1.000000" stroke="none" 
	d="
M155.404633,339.619690 
	C154.997147,327.232727 154.948441,314.631134 154.898651,301.567871 
	C155.258530,301.753174 155.934250,302.400421 155.933777,303.047150 
	C155.924881,315.166473 155.835739,327.285767 155.404633,339.619690 
z"/>
<path fill="#34A56A" opacity="1.000000" stroke="none" 
	d="
M373.931274,337.563385 
	C373.611084,333.326355 373.264709,328.621490 373.103485,323.910309 
	C372.873505,317.189453 372.779205,310.463989 372.385193,303.415222 
	C372.418671,302.561859 372.693939,302.033752 372.969177,301.505676 
	C373.308716,301.542389 373.648224,301.579071 373.987762,301.615784 
	C373.987762,313.441437 373.987762,325.267090 373.931274,337.563385 
z"/>
<path fill="#7AC59E" opacity="1.000000" stroke="none" 
	d="
M211.930542,337.648071 
	C211.626129,334.236938 211.234802,330.349762 211.170761,326.457184 
	C211.037064,318.329681 211.076218,310.199341 211.047745,301.611938 
	C211.346939,302.674194 211.885956,304.192566 211.899353,305.715515 
	C211.991638,316.199677 211.974060,326.684814 211.930542,337.648071 
z"/>
<path fill="#7AC59E" opacity="1.000000" stroke="none" 
	d="
M333.036438,334.572083 
	C332.731567,333.345459 332.125031,331.653442 332.089264,329.949432 
	C331.898132,320.844849 331.849609,311.737244 331.455750,302.341797 
	C331.399292,301.349121 331.638855,300.645355 331.878418,299.941620 
	C332.251678,300.018585 332.624939,300.095520 332.998199,300.172455 
	C332.998199,311.482025 332.998199,322.791565 333.036438,334.572083 
z"/>
<path fill="#34A56A" opacity="1.000000" stroke="none" 
	d="
M225.150146,334.552368 
	C224.830917,333.328857 224.093109,331.648590 224.060760,329.954865 
	C223.925995,322.898041 224.057648,315.836426 223.964767,308.778259 
	C223.941833,307.035034 223.442093,305.298126 222.837036,303.275299 
	C222.948685,302.367310 223.384857,301.742310 223.821014,301.117340 
	C224.232681,301.165863 224.644333,301.214355 225.055984,301.262848 
	C225.055984,312.205048 225.055984,323.147217 225.150146,334.552368 
z"/>
<path fill="#069148" opacity="1.000000" stroke="none" 
	d="
M151.328522,300.017761 
	C149.684174,295.282410 152.426331,292.624084 156.495331,290.315521 
	C158.558807,295.616211 153.585373,296.966248 151.328522,300.017761 
z"/>
<path fill="#F2F8F6" opacity="1.000000" stroke="none" 
	d="
M382.204376,309.931732 
	C382.434570,319.309540 382.653412,329.119141 382.864502,339.386902 
	C382.597748,334.829437 382.227264,329.816437 382.111755,324.797577 
	C382.001129,319.989410 382.155243,315.175140 382.204376,309.931732 
z"/>
<path fill="#7AC59E" opacity="1.000000" stroke="none" 
	d="
M220.104736,310.507233 
	C220.439438,315.562073 220.815186,321.081360 220.997421,326.607056 
	C221.132797,330.711731 221.017166,334.824677 221.003723,339.391449 
	C220.657593,338.711151 220.037491,337.575287 220.029785,336.435272 
	C219.972504,327.948761 220.036667,319.461487 220.104736,310.507233 
z"/>
<path fill="#7AC59E" opacity="1.000000" stroke="none" 
	d="
M151.052094,311.196960 
	C151.390671,315.280457 151.831070,319.859039 151.978073,324.446991 
	C152.132645,329.270905 152.006439,334.103790 151.993805,339.390320 
	C151.651245,338.552948 151.041641,337.260590 151.029465,335.962646 
	C150.953568,327.874542 151.011398,319.785156 151.052094,311.196960 
z"/>
<path fill="#34A56A" opacity="1.000000" stroke="none" 
	d="
M328.046906,312.359344 
	C328.408691,317.428375 328.793457,322.975006 329.009796,328.528168 
	C329.144745,331.992554 329.025452,335.466827 329.012573,339.395020 
	C328.657959,338.225189 328.033417,336.600647 328.011810,334.968170 
	C327.914215,327.593262 327.987183,320.216064 328.046906,312.359344 
z"/>
<path fill="#7AC59E" opacity="1.000000" stroke="none" 
	d="
M369.072632,310.362152 
	C369.312439,318.133881 369.506561,326.386627 369.303986,334.825165 
	C368.947174,326.955048 368.987030,318.899078 369.072632,310.362152 
z"/>
<path fill="#34A56A" opacity="1.000000" stroke="none" 
	d="
M207.039337,311.364014 
	C207.222809,318.751678 207.349335,326.618134 207.134399,334.744141 
	C206.856094,327.283417 206.919250,319.563110 207.039337,311.364014 
z"/>
<path fill="#7AC59E" opacity="1.000000" stroke="none" 
	d="
M368.559692,334.910461 
	C366.723511,335.131866 364.447693,335.358429 362.067383,335.170715 
	C364.015289,334.809509 366.067688,334.862549 368.559692,334.910461 
z"/>
<path fill="#7AC59E" opacity="1.000000" stroke="none" 
	d="
M334.895050,335.613708 
	C334.379364,335.787384 333.759766,335.667480 333.064148,335.232208 
	C333.589142,335.051300 334.190125,335.185730 334.895050,335.613708 
z"/>
<path fill="#000000" opacity="1.000000" stroke="none" 
	d="
M291.970581,334.759094 
	C291.976440,331.540039 291.982300,328.320984 292.429565,324.596985 
	C295.247131,324.093109 297.623322,324.094208 299.999512,324.095276 
	C299.999512,324.095276 300.000885,323.999390 299.960815,324.457153 
	C299.915314,328.275757 299.909882,331.636627 299.904480,334.997467 
	C299.904480,334.997467 299.996216,334.995819 299.551270,334.955994 
	C296.727722,334.863831 294.349152,334.811462 291.970581,334.759094 
z"/>
<path fill="#7AC59E" opacity="1.000000" stroke="none" 
	d="
M300.314331,334.854614 
	C299.909882,331.636627 299.915314,328.275757 299.912872,324.456390 
	C300.178070,327.569183 300.451141,331.140472 300.314331,334.854614 
z"/>
<path fill="#7AC59E" opacity="1.000000" stroke="none" 
	d="
M299.869049,323.699005 
	C297.623322,324.094208 295.247131,324.093109 292.426727,324.159302 
	C294.567871,323.918671 297.153229,323.610718 299.869049,323.699005 
z"/>
<path fill="#7AC59E" opacity="1.000000" stroke="none" 
	d="
M291.724243,335.022644 
	C294.349152,334.811462 296.727722,334.863831 299.550079,334.910156 
	C297.155212,335.031464 294.316589,335.158844 291.724243,335.022644 
z"/>
<path fill="#000000" opacity="1.000000" stroke="none" 
	d="
M186.323059,326.552429 
	C189.116241,325.175476 191.748123,324.171021 194.821655,322.997986 
	C194.821655,327.653931 194.821655,331.410645 194.821655,335.587982 
	C191.635345,335.587982 188.629349,335.587982 184.696609,335.587982 
	C185.215546,332.519653 185.688644,329.722290 186.323059,326.552429 
z"/>
<path fill="#000000" opacity="1.000000" stroke="none" 
	d="
M348.035614,326.233490 
	C354.085480,326.600342 357.035706,330.018860 356.792633,335.875732 
	C353.745544,335.875732 350.708496,335.875732 346.863098,335.875732 
	C347.141235,332.436432 347.386719,329.400848 348.035614,326.233490 
z"/>
</svg>