<svg width="467" height="933" viewBox="0 0 467 933" fill="none" xmlns="http://www.w3.org/2000/svg">
<g clip-path="url(#clip0_149_5)">
<path d="M466.5 376.669C465.344 376.669 464.252 376.187 463.449 375.32L378.628 283.24C377.922 282.469 377.536 281.474 377.536 280.414V96.2548C377.536 95.227 377.922 94.1993 378.628 93.4285L463.449 1.34892C465.023 -0.353285 467.978 -0.353285 469.551 1.34892L554.373 93.4606C555.079 94.2314 555.465 95.227 555.465 96.2869V280.478C555.465 281.506 555.079 282.534 554.373 283.304L469.551 375.384C468.781 376.219 467.657 376.733 466.5 376.733V376.669ZM385.822 278.808L466.5 366.391L547.178 278.808V97.8606L466.5 10.2775L385.822 97.8606V278.808Z" fill="#EEEEEE" fill-opacity="0.39"/>
<path d="M466.5 578.299C465.633 578.299 464.798 578.043 464.059 577.497L313.88 468.17C312.82 467.399 312.178 466.147 312.178 464.83V246.145C312.178 244.828 312.82 243.576 313.88 242.805L464.059 133.478C465.505 132.419 467.496 132.419 468.941 133.478L619.12 242.805C620.18 243.576 620.823 244.828 620.823 246.145V464.83C620.823 466.147 620.18 467.399 619.12 468.17L468.941 577.497C468.202 578.043 467.367 578.299 466.5 578.299ZM320.496 462.71L466.5 569.018L612.536 462.71V248.233L466.5 141.925L320.496 248.233V462.678V462.71Z" fill="#EEEEEE" fill-opacity="0.39"/>
<path d="M466.5 932.711C465.344 932.711 464.252 932.229 463.449 931.362L378.628 839.282C377.922 838.512 377.536 837.516 377.536 836.456V652.265C377.536 651.237 377.922 650.209 378.628 649.439L463.449 557.359C465.023 555.657 467.978 555.657 469.551 557.359L554.373 649.439C555.079 650.209 555.465 651.205 555.465 652.265V836.456C555.465 837.484 555.079 838.512 554.373 839.282L469.551 931.362C468.781 932.197 467.657 932.711 466.5 932.711ZM385.822 834.85L466.5 922.433L547.178 834.85V653.903L466.5 566.32L385.822 653.903V834.85Z" fill="#EEEEEE" fill-opacity="0.39"/>
<path d="M466.5 800.068C465.633 800.068 464.798 799.811 464.059 799.265L313.88 689.938C312.82 689.167 312.178 687.915 312.178 686.598V467.913C312.178 466.596 312.82 465.344 313.88 464.573L464.059 355.247C465.505 354.187 467.496 354.187 468.941 355.247L619.12 464.573C620.18 465.344 620.823 466.596 620.823 467.913V686.598C620.823 687.915 620.18 689.167 619.12 689.938L468.941 799.265C468.202 799.811 467.367 800.068 466.5 800.068ZM320.496 684.478L466.5 790.786L612.536 684.478V470.033L466.5 363.725L320.496 470.033V684.478Z" fill="#EEEEEE" fill-opacity="0.39"/>
<path d="M280.574 555.304H96.3832C95.3554 555.304 94.3277 554.918 93.5569 554.212L1.47733 469.391C0.642291 468.62 0.128418 467.496 0.128418 466.339C0.128418 465.183 0.610174 464.059 1.47733 463.288L93.589 378.467C94.3598 377.761 95.3554 377.375 96.4153 377.375H280.607C281.634 377.375 282.662 377.761 283.433 378.467L375.544 463.288C376.38 464.059 376.893 465.183 376.893 466.339C376.893 467.496 376.412 468.588 375.544 469.391L283.433 554.212C282.662 554.918 281.666 555.304 280.607 555.304H280.574ZM97.989 547.017H278.936L366.52 466.339L278.936 385.661H98.0212L10.4059 466.339L97.989 547.017Z" fill="#EEEEEE" fill-opacity="0.39"/>
<path d="M464.958 620.662H246.273C244.957 620.662 243.704 620.019 242.933 618.96L133.607 468.78C132.547 467.335 132.547 465.344 133.607 463.899L242.933 313.719C243.704 312.659 244.957 312.017 246.273 312.017H464.958C466.275 312.017 467.528 312.659 468.299 313.719L577.625 463.899C578.685 465.344 578.685 467.335 577.625 468.78L468.299 618.96C467.528 620.019 466.275 620.662 464.958 620.662ZM248.393 612.376H462.839L569.146 466.339L462.839 320.303H248.393L142.086 466.339L248.393 612.376Z" fill="#EEEEEE" fill-opacity="0.39"/>
<path d="M686.726 620.662H468.042C466.725 620.662 465.472 620.019 464.701 618.96L355.375 468.78C354.315 467.335 354.315 465.344 355.375 463.899L464.701 313.719C465.472 312.659 466.725 312.017 468.042 312.017H686.726C688.043 312.017 689.296 312.659 690.067 313.719L799.393 463.899C800.453 465.344 800.453 467.335 799.393 468.78L690.067 618.96C689.296 620.019 688.043 620.662 686.726 620.662ZM470.161 612.376H684.607L790.914 466.339L684.607 320.303H470.161L363.854 466.339L470.161 612.376Z" fill="#EEEEEE" fill-opacity="0.39"/>
<path d="M400.146 404.161C400.146 404.161 400.018 404.161 399.986 404.161L274.89 399.022C273.862 398.99 272.866 398.54 272.128 397.802L141.893 267.567C141.154 266.828 140.737 265.833 140.673 264.805L135.534 139.709C135.47 138.553 135.919 137.429 136.754 136.594C137.589 135.759 138.713 135.309 139.87 135.373L264.966 140.512C265.993 140.544 266.989 140.994 267.728 141.732L397.962 271.967C398.701 272.706 399.118 273.701 399.183 274.729L404.321 399.825C404.386 400.981 403.936 402.105 403.101 402.94C402.266 403.775 401.27 404.161 400.178 404.161H400.146ZM276.849 390.8L395.81 395.682L390.929 276.72L262.974 148.766L144.013 143.884L148.895 262.846L276.849 390.8Z" fill="#EEEEEE" fill-opacity="0.39"/>
<path d="M359.229 575.602C358.137 575.602 357.077 575.184 356.306 574.381L201.695 419.77C200.763 418.838 200.314 417.489 200.539 416.205L229.412 232.688C229.701 230.921 231.082 229.508 232.88 229.219L416.397 200.346C417.682 200.153 419.031 200.571 419.962 201.502L574.574 356.114C575.505 357.045 575.955 358.394 575.73 359.679L546.857 543.195C546.568 544.962 545.187 546.375 543.388 546.664L359.871 575.537C359.646 575.569 359.454 575.602 359.229 575.602ZM209.05 415.402L360.674 567.026L539.116 538.956L567.187 360.514L415.562 208.857L237.12 236.927L209.05 415.37V415.402Z" fill="#EEEEEE" fill-opacity="0.39"/>
<path d="M516.024 732.397C514.932 732.397 513.872 731.979 513.102 731.177L358.49 576.565C357.559 575.634 357.109 574.285 357.334 573L386.207 389.515C386.496 387.749 387.877 386.336 389.676 386.047L573.16 357.174C574.445 356.949 575.794 357.398 576.725 358.33L731.337 512.941C732.268 513.873 732.718 515.222 732.493 516.506L703.62 699.991C703.331 701.757 701.95 703.17 700.151 703.459L516.667 732.333C516.442 732.365 516.249 732.397 516.024 732.397ZM365.813 572.197L517.47 723.854L695.912 695.784L723.982 517.373L572.325 365.717L393.915 393.787L365.845 572.229L365.813 572.197Z" fill="#EEEEEE" fill-opacity="0.39"/>
<path d="M139.677 797.338C138.585 797.338 137.525 796.888 136.754 796.117C135.951 795.314 135.502 794.158 135.534 793.002L140.673 667.906C140.705 666.878 141.154 665.883 141.893 665.144L272.128 534.909C272.866 534.171 273.862 533.753 274.89 533.689L399.986 528.55C401.174 528.454 402.266 528.936 403.101 529.771C403.904 530.574 404.353 531.73 404.321 532.886L399.183 657.982C399.15 659.01 398.701 660.005 397.962 660.744L267.728 790.979C266.989 791.717 265.993 792.135 264.965 792.199L139.87 797.338C139.87 797.338 139.741 797.338 139.709 797.338H139.677ZM148.895 669.865L144.013 788.859L262.974 783.945L390.929 655.991L395.81 537.029L276.849 541.943L148.895 669.897V669.865Z" fill="#EEEEEE" fill-opacity="0.39"/>
<path d="M416.975 732.397C416.75 732.397 416.558 732.397 416.333 732.333L232.816 703.459C231.05 703.17 229.637 701.789 229.347 699.991L200.474 516.506C200.282 515.189 200.699 513.873 201.63 512.941L356.242 358.33C357.173 357.398 358.522 356.949 359.807 357.174L543.324 386.047C545.09 386.336 546.503 387.717 546.792 389.515L575.666 573C575.858 574.317 575.441 575.634 574.509 576.565L419.898 731.177C419.127 731.947 418.067 732.397 416.975 732.397ZM237.088 695.751L415.53 723.822L567.154 572.165L539.084 393.723L360.642 365.652L209.017 517.309L237.088 695.719V695.751Z" fill="#EEEEEE" fill-opacity="0.39"/>
<path d="M573.771 575.602C573.546 575.602 573.353 575.602 573.128 575.537L389.644 546.664C387.877 546.375 386.464 544.994 386.175 543.195L357.302 359.679C357.109 358.362 357.527 357.045 358.458 356.114L513.07 201.502C514.001 200.571 515.35 200.153 516.635 200.346L700.119 229.219C701.886 229.508 703.299 230.889 703.588 232.688L732.461 416.205C732.654 417.521 732.236 418.838 731.305 419.77L576.693 574.381C575.923 575.152 574.863 575.602 573.771 575.602ZM393.915 538.956L572.325 567.026L723.982 415.402L695.912 236.959L517.47 208.889L365.813 360.546L393.883 538.988L393.915 538.956Z" fill="#EEEEEE" fill-opacity="0.39"/>
<path d="M466.5 933C464.22 933 462.357 931.137 462.357 928.857V796.213C462.357 793.933 464.22 792.07 466.5 792.07C468.78 792.07 470.643 793.933 470.643 796.213V928.857C470.643 931.137 468.78 933 466.5 933Z" fill="#EEEEEE" fill-opacity="0.39"/>
<path d="M466.5 140.93C464.22 140.93 462.357 139.067 462.357 136.786V4.1431C462.357 1.86279 464.22 0 466.5 0C468.78 0 470.643 1.86279 470.643 4.1431V136.786C470.643 139.067 468.78 140.93 466.5 140.93Z" fill="#EEEEEE" fill-opacity="0.39"/>
<path d="M136.786 470.643H4.1431C1.86279 470.643 0 468.78 0 466.5C0 464.22 1.86279 462.357 4.1431 462.357H136.786C139.067 462.357 140.93 464.22 140.93 466.5C140.93 468.78 139.067 470.643 136.786 470.643Z" fill="#EEEEEE" fill-opacity="0.39"/>
<path d="M233.362 237.505C232.303 237.505 231.243 237.088 230.44 236.285L136.658 142.503C135.052 140.897 135.052 138.264 136.658 136.626C138.264 135.02 140.897 135.02 142.535 136.626L236.317 230.408C237.923 232.013 237.923 234.647 236.317 236.285C235.514 237.088 234.454 237.505 233.395 237.505H233.362Z" fill="#EEEEEE" fill-opacity="0.39"/>
<path d="M139.581 797.562C138.521 797.562 137.461 797.145 136.658 796.342C135.052 794.736 135.052 792.102 136.658 790.465L230.44 696.651C232.046 695.045 234.679 695.045 236.317 696.651C237.923 698.257 237.923 700.89 236.317 702.528L142.535 796.342C141.733 797.145 140.673 797.562 139.613 797.562H139.581Z" fill="#EEEEEE" fill-opacity="0.39"/>
</g>
<defs>
<clipPath id="clip0_149_5">
<rect width="933" height="933" fill="white"/>
</clipPath>
</defs>
</svg>
