<svg width="227" height="37" viewBox="0 0 227 37" className='fill-accentTextContrast dark:fill-accentTextContrast-dark' xmlns="http://www.w3.org/2000/svg">
<path d="M13.88 6.24C14.16 5.56 14.64 5.08 15.36 5.08C16.16 5.08 16.76 5.68 16.76 6.64V22.56C16.76 26.12 18.76 28.48 22.72 28.48C26.32 28.48 28.08 26.56 29.12 23.48L35.68 6.24C35.92 5.56 36.48 5.08 37.16 5.08C37.96 5.08 38.52 5.68 38.52 6.64V28H43.28V6.4C43.28 2.88 41.28 0.519999 37.28 0.519999C33.68 0.519999 31.96 2.44 30.92 5.52L24.36 22.76C24.12 23.44 23.56 23.88 22.84 23.88C22.04 23.88 21.48 23.28 21.48 22.36V6.4C21.48 2.88 19.48 0.519999 15.48 0.519999C11.88 0.519999 10.16 2.44 9.12 5.52L0.76 28H5.8L13.88 6.24ZM67.7234 6.88C62.0834 6.88 58.5634 10.32 58.5634 17.44C58.5634 24.56 62.0834 28 67.7234 28H72.1634C77.7634 28 81.3234 24.56 81.3234 17.44C81.3234 10.32 77.7634 6.88 72.1634 6.88H67.7234ZM71.7634 10.96C75.4034 10.96 77.0434 12.88 77.0434 17.44C77.0434 22 75.4034 23.88 71.7634 23.88H68.1234C64.4434 23.88 62.8434 22 62.8434 17.44C62.8434 12.88 64.4434 10.96 68.1234 10.96H71.7634ZM102.279 6.88C97.3594 6.88 95.3994 9.24 95.3994 13.04C95.3994 16.28 96.8394 19.2 102.679 19.2H107.679C109.799 19.2 110.679 19.88 110.679 21.56C110.679 23.2 109.879 23.88 107.919 23.88H95.6394V28H107.919C112.879 28 114.839 25.36 114.839 21.6C114.839 18.32 113.359 15.64 107.519 15.64H102.559C100.199 15.64 99.5594 14.84 99.5594 13.36C99.5594 11.76 100.359 10.96 102.319 10.96H113.999V6.88H102.279ZM137.997 6.88C132.357 6.88 128.837 10.32 128.837 17.44C128.837 24.56 132.357 28 137.997 28H147.317V36.48H151.597V15.92C151.597 9.84 148.877 6.88 143.837 6.88H137.997ZM133.117 17.44C133.117 12.88 134.757 10.96 138.397 10.96H142.597C145.997 10.96 147.317 12.48 147.317 16.12V23.88H138.397C134.757 23.88 133.117 22 133.117 17.44ZM167.451 6.88V19.68C167.451 24.56 170.571 28 176.611 28H180.531C186.571 28 189.691 24.56 189.691 19.68V6.88H185.531V19.52C185.531 22 183.731 23.88 180.371 23.88H176.931C173.571 23.88 171.731 22 171.731 19.52V6.88H167.451ZM212.577 6.88C207.297 6.88 205.217 9.84 205.217 13.84V21.04C205.217 25.04 207.297 28 212.577 28H225.497V23.88H212.577C210.257 23.88 209.337 22.64 209.337 20.96V19.44H219.377C224.577 19.44 226.537 17.24 226.537 13.36C226.537 9.28 224.417 6.88 219.417 6.88H212.577ZM209.337 13.88C209.337 12.24 210.257 10.96 212.577 10.96H219.377C221.457 10.96 222.377 12 222.377 13.6C222.377 15.16 221.537 16.12 219.257 16.12H209.337V13.88Z" />
</svg>
