<svg width="723" height="629" viewBox="0 0 723 629" fill="none" xmlns="http://www.w3.org/2000/svg">
<path d="M98.5149 173.03C70.1031 206.805 0 240.327 0 300.618C0 340.129 3.63323 384.776 69.9396 419.986C122.839 448.081 114.628 514.362 114.628 514.362C117.135 562.511 158.227 581.35 207.039 585.216C255.852 589.082 288.515 549.517 328.571 587.612C368.627 625.707 440.511 659.464 493.465 583.365C535.592 522.837 547.745 497.428 627.622 493.799C728.262 489.225 743.594 376.881 700.014 328.605C697.834 326.191 695.672 323.886 693.51 321.672C652.382 279.348 623.607 271.997 628.476 196.043C635.815 81.5215 592.325 27.0013 532.268 8.9247C467.324 -10.622 400.091 53.1906 347.627 34.025C291.33 13.462 249.657 -18.3172 187.075 13.462C127.472 43.7167 126.927 139.29 98.5149 173.048V173.03Z" fill="#B4DFC4"/>
<path d="M595.558 422.69L586.148 384.649L396.621 357.698L211.417 322.307L191.616 341.037L72.2646 488.571L303.538 479.442C302.157 483.453 303.556 489.08 304.41 493.435C305.754 500.387 288.532 509.77 276.107 520.496C263.699 531.222 250.91 558.01 250.91 558.01C250.91 558.01 278.759 562.983 279.558 563.074C280.34 563.165 315.182 494.343 317.289 488.553C317.998 486.648 319.578 484.651 321.395 482.818L586.021 588.519L595.558 422.672V422.69Z" fill="#5BB98C"/>
<path d="M652.727 140.415L196.212 316.953L186.185 328.677C230.455 321.49 228.094 340.928 253.763 343.795C227.549 359.912 203.461 402.127 177.156 408.388C155.738 413.488 115.754 423.833 101.658 427.499L63.5269 472.056L72.2829 488.589L647.041 297.914L659.503 148.401L652.727 140.434V140.415Z" fill="#1E1E1E"/>
<path d="M546.601 480.495C527.69 464.379 532.685 415.848 519.896 390.639C545.383 398.57 565.203 382.943 605.295 415.122L606.621 387.862L216.231 93.5364L73.936 194.228L66.4333 204.228L586.039 588.537L597.302 579.917L599.846 527.538C589.618 518.354 561.842 493.472 546.601 480.495Z" fill="#1E1E1E"/>
<path d="M605.296 415.14L595.559 422.708C595.559 422.708 583.714 410.095 565.984 405.085C548.254 400.076 540.679 408.116 516.481 398.733C508.979 390.82 515.028 383.306 515.028 383.306L569.69 385.176L605.296 415.14Z" fill="#1E1E1E"/>
<path d="M546.601 480.495C527.69 464.379 532.685 415.848 519.897 390.639C545.384 398.57 565.203 382.943 605.295 415.122L606.622 387.862L193.542 82.7738L73.936 194.228L597.284 579.935L599.827 527.556C589.6 518.373 561.824 493.49 546.583 480.513L546.601 480.495Z" fill="#153226"/>
<path d="M402.561 237.151L225.224 305.719L348.844 396.827L535.083 335.029L402.561 237.151Z" fill="#1E1E1E"/>
<path d="M186.185 328.659L191.616 341.037C191.616 341.037 204.769 333.795 217.903 341.037C231.037 348.278 242.1 358.896 262.755 353.487C266.933 340.982 262.755 331.345 262.755 331.345C262.755 331.345 216.013 317.007 214.978 317.007C213.943 317.007 186.167 328.677 186.167 328.677L186.185 328.659Z" fill="#1E1E1E"/>
<path d="M196.212 316.953L186.185 328.677C230.455 321.49 228.094 340.928 253.763 343.796C227.549 359.912 203.461 402.127 177.156 408.389C155.738 413.488 115.754 423.833 101.658 427.5L63.5269 472.056L637.431 288.096L652.727 140.434L196.212 316.953Z" fill="#153226"/>
<path d="M403.579 228.603L193.542 298.259L318.47 390.657L332.095 385.92L403.579 228.603Z" fill="#1E1E1E"/>
<path d="M403.579 228.603L208.256 293.377L332.095 385.92L403.579 228.603Z" fill="#4C230C"/>
<path d="M85.7986 190.417C85.7986 190.417 299.868 355.52 307.807 361.346C315.727 367.19 332.004 377.19 357.473 369.259C382.924 361.346 629.238 282.233 629.238 282.233L647.005 133.301L645.406 129.345L401.29 204.591L215.995 68.6719L85.7986 186.043V190.417Z" fill="#1E1E1E"/>
<path d="M85.7986 186.043C85.7986 186.043 299.868 351.146 307.807 356.972C315.727 362.816 332.004 372.816 357.473 364.885C382.924 356.972 625.787 279.003 625.787 279.003L645.406 129.326L401.29 200.199L215.995 64.2979L85.7986 186.043Z" fill="#844914"/>
<path d="M226.441 61.3757L92.4836 184.79L306.553 349.893C306.553 349.893 318.234 344.467 326.591 344.467C334.947 344.467 352.877 360.728 352.877 360.728L615.359 275.264L636.232 127.257L613.706 117.257L407.139 191.469L234.379 61.3939H226.459L226.441 61.3757Z" fill="#ECB67B"/>
<path d="M617.903 119.126C615.886 131.286 613.688 143.41 611.454 155.516L604.569 191.832L597.321 228.076L593.56 246.171L589.618 264.229L592.743 246.007L596.049 227.822L602.934 191.505L610.2 155.28C612.689 143.21 615.196 131.159 617.903 119.126Z" fill="#E2A05D"/>
<path d="M621.1 121.177C619.32 133.156 617.376 145.098 615.396 157.04L609.256 192.83L602.734 228.548L599.337 246.389L595.758 264.193L598.52 246.243L601.462 228.33L607.621 192.54L614.142 156.822C616.395 144.935 618.666 133.029 621.118 121.177H621.1Z" fill="#E2A05D"/>
<path d="M625.278 123.047C623.589 135.043 621.717 147.004 619.828 158.964L613.942 194.79L607.675 230.563L604.405 248.421L600.972 266.262L603.606 248.294L606.422 230.363L612.307 194.536L618.575 158.764C620.736 146.858 622.916 134.953 625.278 123.065V123.047Z" fill="#E2A05D"/>
<path d="M629.329 124.825C627.731 136.822 625.969 148.8 624.17 160.761L618.575 196.624L612.598 232.432L609.474 250.309L606.167 268.168L608.656 250.182L611.327 232.232L616.922 196.369L622.899 160.579C624.951 148.655 627.059 136.731 629.311 124.843L629.329 124.825Z" fill="#E2A05D"/>
<path d="M633.344 126.713C631.836 138.855 630.147 150.978 628.421 163.084L623.062 199.382L617.321 235.626L614.324 253.721L611.145 271.798L613.525 253.594L616.068 235.427L621.427 199.128L627.168 162.884C629.148 150.815 631.164 138.746 633.344 126.713Z" fill="#E2A05D"/>
<path d="M114.192 178.529C114.192 178.529 162.605 213.139 203.497 236.062C244.389 258.984 321.177 315.682 326.591 344.449C351.206 319.439 382.506 287.333 441.346 281.072C500.186 274.81 573.214 267.315 583.224 261.471C588.237 236.461 613.688 117.221 613.688 117.221C613.688 117.221 584.477 123.065 553.177 125.134C521.877 127.221 424.651 147.639 407.121 191.415C392.933 156.387 372.06 135.552 331.586 117.203C291.112 98.8539 234.361 61.3395 234.361 61.3395L114.192 178.529Z" fill="#FFE6BD"/>
<path d="M326.591 344.467C351.206 319.457 382.506 287.351 441.346 281.09C500.186 274.829 573.214 267.333 583.224 261.489C588.237 236.479 613.688 117.239 613.688 117.239C613.688 117.239 584.477 123.083 553.177 125.152C521.877 127.239 424.651 147.657 407.121 191.433L326.591 344.431V344.467Z" fill="#FFE9D2"/>
<path d="M483.909 281.925C372.624 304.158 326.591 344.467 326.591 344.467C334.929 344.467 352.877 360.729 352.877 360.729L615.359 275.264C615.359 275.264 593.524 265.808 583.224 261.507C570.435 268.876 547.073 268.966 483.909 281.943V281.925Z" fill="#FFC892"/>
<path d="M259.394 263.993C223.916 239.818 114.174 178.529 114.174 178.529L92.4836 184.79L306.553 349.893C306.553 349.893 318.234 344.467 326.591 344.467C330.769 318.622 294.873 288.186 259.412 264.011L259.394 263.993Z" fill="#FFC892"/>
<path d="M259.394 263.993C223.916 239.819 114.174 178.529 114.174 178.529C114.174 178.529 255.634 273.159 273.582 285.264C291.53 297.351 325.319 328.205 326.573 344.467C330.751 318.622 294.854 288.186 259.394 264.011V263.993Z" fill="#ECB67B"/>
<path d="M112.103 183.955C112.103 183.955 294.455 312.778 326.591 344.467C303.229 313.196 170.943 218.276 112.103 183.955Z" fill="#ECB67B"/>
<path d="M106.108 183.956L132.685 203.339L159.154 222.867L211.908 262.16L264.444 301.744L290.64 321.635L316.708 341.69L290.15 322.289L263.681 302.76L210.909 263.485L158.372 223.902L132.195 203.992L106.108 183.956Z" fill="#ECB67B"/>
<path d="M334.929 344.467C344.612 339.222 354.458 334.303 364.322 329.403C374.222 324.594 384.196 319.929 394.26 315.428C399.292 313.178 404.342 310.964 409.446 308.894C414.533 306.789 419.656 304.738 424.924 302.942C435.442 299.421 446.142 296.644 456.842 294.048C467.596 291.598 478.369 289.293 489.159 287.134C499.95 284.974 510.741 282.796 521.586 280.854C532.413 278.858 543.222 276.861 554.013 274.756C564.803 272.651 575.63 270.654 586.13 267.369C581.007 269.384 575.721 270.981 570.38 272.36C565.058 273.812 559.699 275.064 554.34 276.353C543.603 278.803 532.831 281.072 522.077 283.377C500.55 287.932 478.95 292.161 457.605 297.297C446.923 299.784 436.26 302.47 425.887 305.827C420.728 307.533 415.605 309.53 410.518 311.581L395.259 317.806C385.104 322.016 375.04 326.408 364.994 330.909C354.912 335.32 344.938 339.93 334.929 344.503V344.467Z" fill="#ECB67B"/>
<path d="M343.485 346.754C363.195 337.806 383.287 329.73 403.688 322.47C413.879 318.822 424.161 315.41 434.534 312.289C439.693 310.673 444.925 309.258 450.139 307.769C455.37 306.39 460.62 304.993 465.87 303.704C486.871 298.531 507.816 293.087 528.725 287.569C539.189 284.829 549.634 282.016 560.062 279.112C565.276 277.678 570.489 276.244 575.685 274.72C580.88 273.195 586.058 271.671 591.144 269.819C570.816 277.261 549.889 282.923 529.07 288.803C508.216 294.575 487.252 300.002 466.27 305.319C445.234 310.328 424.561 316.663 404.106 323.668C393.878 327.153 383.705 330.855 373.605 334.721C363.486 338.532 353.422 342.507 343.467 346.754H343.485Z" fill="#ECB67B"/>
<path d="M326.064 309.802L324.374 306.789C318.706 297.007 292.166 273.177 265.116 255.935C239.266 239.456 162.95 189.727 162.169 189.219L160.352 187.948L257.759 87.1113L259.303 88.164C259.957 88.5451 324.719 125.751 350.043 142.249C375.458 158.819 395.131 184.427 395.313 184.681L396.621 186.877L396.349 187.349C395.967 188.021 357.6 255.79 326.79 308.531L326.064 309.766V309.802ZM163.931 188.384C172.396 193.901 241.646 238.984 266.007 254.538C290.494 270.146 317.399 293.105 325.065 304.756C354.367 254.538 390.154 191.415 393.642 185.262C390.953 181.832 372.478 158.873 349.117 143.646C325.101 128.001 265.48 93.645 259.031 89.9426L163.931 188.384Z" fill="#E2A05D"/>
<path d="M354.294 309.076L350.37 313.051L415.914 185.97L415.986 185.879C416.204 185.643 438.403 162.412 464.163 153.011C503.056 139.78 569.417 133.156 570.09 133.101L574.468 132.648L574.086 133.846C574.086 133.846 547.8 218.058 537.372 251.416L537.209 251.96L533.503 252.323C387.048 262.178 354.603 308.604 354.294 309.076ZM417.294 186.95L357.273 303.323C370.062 290.981 414.279 258.785 532.831 250.708C542.622 219.383 565.766 145.243 569 134.898C559.644 135.878 500.459 142.448 464.726 154.608C440.129 163.592 418.766 185.426 417.294 186.968V186.95Z" fill="#E2A05D"/>
<path d="M277.179 563.129L276.398 563.038C282.756 505.432 276.47 477.283 276.398 477.011L277.179 476.829C277.252 477.102 283.573 505.36 277.179 563.129Z" fill="#30A46C"/>
<path d="M279.558 563.092L278.777 563.002C285.135 505.396 278.85 477.247 278.777 476.974L279.558 476.793C279.631 477.065 285.953 505.323 279.558 563.092Z" fill="#30A46C"/>
<path d="M272.783 562.493L272.001 562.402C278.36 504.779 272.565 475.921 272.492 475.649L273.273 475.486C273.328 475.776 279.159 504.742 272.783 562.493Z" fill="#30A46C"/>
<path d="M251.655 558.119L250.856 558.046C250.929 557.411 257.414 494.198 273.109 475.486L273.709 475.994C258.159 494.524 251.71 557.484 251.637 558.119H251.655Z" fill="#30A46C"/>
<path d="M252.981 558.119L252.182 558.046C252.237 557.411 258.74 494.198 274.436 475.486L275.035 475.994C259.485 494.524 253.036 557.484 252.963 558.119H252.981Z" fill="#30A46C"/>
<path d="M255.434 560.279L254.635 560.206C260.611 497.465 275.362 474.978 275.508 474.76L276.162 475.196C276.016 475.413 261.393 497.773 255.416 560.279H255.434Z" fill="#30A46C"/>
<path d="M257.541 561.023L256.742 560.951C262.719 498.209 277.47 475.722 277.615 475.504L278.269 475.94C278.123 476.158 263.5 498.517 257.523 561.023H257.541Z" fill="#30A46C"/>
<path d="M270.948 562.983L270.167 562.874C270.258 562.203 279.613 495.214 273.564 476.883L274.327 476.629C280.431 495.123 271.348 560.206 270.966 562.965L270.948 562.983Z" fill="#30A46C"/>
<path d="M274.163 563.709L273.382 563.618C273.473 562.947 281.502 495.74 275.09 477.573L275.834 477.301C282.302 495.65 274.508 560.932 274.163 563.709Z" fill="#30A46C"/>
<path d="M259.521 560.206L258.74 560.098C259.176 557.067 269.404 485.595 274.345 477.374L275.035 477.773C270.185 485.849 259.63 559.462 259.54 560.188L259.521 560.206Z" fill="#30A46C"/>
<path d="M267.878 561.622L267.097 561.495C267.188 560.951 275.962 507.374 275.162 478.862H275.962C276.761 507.429 267.969 561.096 267.878 561.622Z" fill="#30A46C"/>
<path d="M266.588 561.586L265.807 561.459C265.898 560.914 274.672 507.338 273.873 478.825H274.672C275.471 507.392 266.679 561.059 266.588 561.586Z" fill="#30A46C"/>
<path d="M264.063 561.441L263.264 561.368C266.261 532.638 275.58 474.034 275.671 473.453L276.452 473.58C276.361 474.161 267.042 532.747 264.045 561.459L264.063 561.441Z" fill="#30A46C"/>
<path d="M262.737 561.441L261.938 561.368C264.935 532.638 274.254 474.034 274.345 473.453L275.126 473.58C275.035 474.161 265.716 532.747 262.719 561.459L262.737 561.441Z" fill="#30A46C"/>
<path d="M278.487 563.128L277.651 563.019C284.681 505.414 277.724 477.283 277.651 477.01L278.469 476.811C278.541 477.083 285.517 505.341 278.469 563.128H278.487Z" fill="#BC4646"/>
<path d="M273.618 562.493L272.783 562.384C279.813 504.779 272.855 476.648 272.783 476.375L273.6 476.176C273.673 476.448 280.649 504.706 273.6 562.493H273.618Z" fill="#BC4646"/>
<path d="M250.293 558.119L249.457 558.028C249.53 557.393 256.706 494.161 274.054 475.449L274.672 476.012C257.505 494.524 250.366 557.484 250.293 558.119Z" fill="#BC4646"/>
<path d="M251.746 558.119L250.911 558.028C250.983 557.393 258.159 494.161 275.508 475.449L276.125 476.012C258.958 494.524 251.819 557.484 251.746 558.119Z" fill="#BC4646"/>
<path d="M254.071 560.134L253.236 560.043C259.848 497.283 276.125 474.796 276.289 474.578L276.961 475.068C276.797 475.286 260.648 497.646 254.053 560.134H254.071Z" fill="#BC4646"/>
<path d="M256.088 560.878L255.252 560.787C261.865 498.027 278.142 475.541 278.305 475.323L278.977 475.813C278.814 476.031 262.664 498.39 256.07 560.878H256.088Z" fill="#BC4646"/>
<path d="M272.201 563.147L271.384 563.02C271.493 562.348 281.829 495.378 275.144 477.065L275.925 476.775C282.683 495.287 272.637 560.388 272.201 563.147Z" fill="#30A46C"/>
<path d="M275.162 563.727L274.327 563.618C274.417 562.947 283.283 495.758 276.216 477.609L276.997 477.301C284.155 495.668 275.526 560.95 275.162 563.727Z" fill="#BC4646"/>
<path d="M257.995 559.952L257.178 559.825C257.65 556.794 268.968 485.305 274.418 477.083L275.108 477.537C269.749 485.595 258.104 559.208 257.995 559.934V559.952Z" fill="#BC4646"/>
<path d="M269.04 561.912L268.223 561.767C268.314 561.223 278.014 507.646 277.142 479.152H277.978C278.85 507.719 269.149 561.386 269.059 561.931L269.04 561.912Z" fill="#BC4646"/>
<path d="M264.644 561.495L263.827 561.332C263.936 560.769 275.435 505.015 274.563 476.502H275.399C276.27 505.069 264.753 560.932 264.644 561.495Z" fill="#BC4646"/>
<path d="M263.99 561.459L263.155 561.368C266.461 532.638 276.761 474.034 276.852 473.453L277.669 473.599C277.56 474.179 267.278 532.765 263.972 561.477L263.99 561.459Z" fill="#BC4646"/>
<path d="M261.083 561.459L260.248 561.368C263.554 532.638 273.854 474.034 273.945 473.453L274.763 473.599C274.654 474.179 264.372 532.765 261.065 561.477L261.083 561.459Z" fill="#BC4646"/>
<g style="mix-blend-mode:multiply">
<path d="M309.169 152.811C311.858 151.831 313.838 149.744 314.783 147.24C314.855 148.02 315.001 148.818 315.273 149.599C317.017 154.59 322.413 157.185 327.299 155.407C329.279 154.681 330.878 153.356 331.968 151.686C331.695 153.283 331.786 154.971 332.368 156.586C334.112 161.577 339.507 164.173 344.394 162.394C344.648 162.303 344.902 162.194 345.157 162.067C345.157 163.102 345.338 164.136 345.702 165.171C347.445 170.162 352.841 172.757 357.728 170.979C358.345 170.761 358.926 170.47 359.471 170.126C358.036 172.503 357.637 175.498 358.636 178.347C360.289 183.066 365.194 185.643 369.881 184.391C367.683 186.914 366.865 190.562 368.064 193.974C369.808 198.965 375.203 201.56 380.09 199.781C384.995 198.003 387.538 192.522 385.794 187.531C384.141 182.812 379.236 180.235 374.549 181.487C376.747 178.964 377.565 175.316 376.366 171.922C374.622 166.931 369.227 164.336 364.34 166.115C363.722 166.332 363.141 166.623 362.596 166.968C364.031 164.59 364.431 161.596 363.432 158.746C361.688 153.755 356.292 151.16 351.406 152.938C351.151 153.029 350.897 153.138 350.643 153.265C350.643 152.231 350.461 151.196 350.098 150.162C348.354 145.171 342.958 142.575 338.072 144.354C336.092 145.08 334.493 146.405 333.403 148.074C333.676 146.477 333.585 144.789 333.003 143.174C331.259 138.183 325.864 135.588 320.977 137.366C318.289 138.346 316.309 140.434 315.364 142.938C315.291 142.158 315.146 141.359 314.874 140.579C313.13 135.588 307.734 132.992 302.848 134.771C297.943 136.55 295.4 142.031 297.143 147.022C298.887 152.013 304.283 154.608 309.169 152.829V152.811Z" fill="#FFE6BD"/>
<path d="M273.382 161.705C278.251 159.944 280.794 154.517 279.123 149.563C281.393 153.374 286.044 155.171 290.331 153.628C295.236 151.85 297.779 146.368 296.035 141.377C294.291 136.386 288.896 133.791 284.009 135.57C279.141 137.33 276.598 142.757 278.269 147.712C275.998 143.9 271.347 142.103 267.06 143.646C262.155 145.425 259.612 150.906 261.356 155.897C263.1 160.888 268.495 163.483 273.382 161.705Z" fill="#FFE6BD"/>
<path d="M324.247 318.005C323.212 315.065 320.923 312.978 318.216 312.107C322.576 310.038 324.774 304.901 323.121 300.201C321.759 296.317 318.18 293.885 314.347 293.849C316.581 291.308 317.417 287.642 316.218 284.211C314.583 279.565 309.787 276.988 305.173 278.113C306.826 275.663 307.353 272.469 306.299 269.438C304.737 264.973 300.25 262.432 295.799 263.231C296.181 261.525 296.108 259.692 295.49 257.931C293.783 253.086 288.642 250.508 283.864 251.997C284.282 250.236 284.227 248.349 283.591 246.516C281.957 241.833 277.106 239.256 272.474 240.436C272.873 238.693 272.819 236.824 272.183 235.009C270.712 230.798 266.624 228.294 262.446 228.693C263.445 226.497 263.627 223.92 262.773 221.452C261.538 217.949 258.504 215.626 255.125 215.172C256.27 212.903 256.542 210.181 255.634 207.586C254.853 205.353 253.345 203.611 251.474 202.504C254.616 200.036 256.015 195.698 254.598 191.687C254.108 190.289 253.327 189.092 252.364 188.111C256.942 186.151 259.285 180.888 257.596 176.06C257.469 175.716 257.341 175.389 257.178 175.08C257.868 174.99 258.54 174.844 259.231 174.59C264.136 172.812 266.679 167.331 264.935 162.34C263.191 157.349 257.796 154.753 252.909 156.532C248.004 158.311 245.461 163.792 247.205 168.783C247.332 169.127 247.459 169.454 247.623 169.763C246.932 169.853 246.26 169.999 245.57 170.253C240.665 172.031 238.122 177.512 239.866 182.503C240.356 183.901 241.137 185.099 242.1 186.079C237.522 188.039 235.179 193.302 236.868 198.13C237.649 200.362 239.157 202.104 241.028 203.193C237.885 205.662 236.487 209.999 237.904 214.01C239.139 217.513 242.173 219.836 245.552 220.29C244.407 222.559 244.135 225.281 245.043 227.876C246.514 232.087 250.602 234.592 254.78 234.192C253.781 236.388 253.599 238.966 254.453 241.434C256.088 246.116 260.938 248.693 265.571 247.514C265.171 249.256 265.226 251.125 265.861 252.94C267.569 257.786 272.71 260.363 277.488 258.875C277.07 260.636 277.124 262.523 277.76 264.356C279.322 268.821 283.809 271.362 288.26 270.563C287.879 272.269 287.951 274.102 288.569 275.863C290.204 280.509 295 283.086 299.614 281.961C297.961 284.411 297.434 287.605 298.488 290.636C299.85 294.52 303.429 296.952 307.262 296.988C305.028 299.529 304.192 303.195 305.391 306.626C306.426 309.566 308.715 311.653 311.422 312.524C307.062 314.593 304.864 319.729 306.517 324.43C307.171 326.299 308.334 327.842 309.805 328.931C308.37 328.731 306.88 328.877 305.427 329.403C300.522 331.182 297.979 336.663 299.723 341.654C300.486 343.813 301.939 345.538 303.72 346.645C301.521 345.538 298.906 345.32 296.417 346.227C291.512 348.006 288.969 353.487 290.713 358.478C291.512 360.747 293.074 362.525 294.982 363.614C293.329 363.251 291.566 363.324 289.859 363.959C284.954 365.738 282.411 371.219 284.155 376.21C285.027 378.678 286.771 380.565 288.932 381.618C287.788 381.582 286.607 381.745 285.463 382.163C280.558 383.941 278.014 389.422 279.758 394.413C281.03 398.061 284.264 400.421 287.824 400.729C287.643 400.784 287.443 400.838 287.261 400.893C282.356 402.671 279.813 408.152 281.557 413.143C282.284 415.212 283.664 416.846 285.354 417.953C290.095 416.446 294.636 414.432 299.36 412.871C299.977 410.929 300.014 408.769 299.287 406.7C298.015 403.052 294.782 400.693 291.221 400.384C291.403 400.33 291.603 400.275 291.784 400.221C296.689 398.442 299.233 392.961 297.489 387.97C296.617 385.502 294.873 383.615 292.711 382.562C293.855 382.598 295.036 382.435 296.181 382.017C301.085 380.239 303.629 374.758 301.885 369.767C301.085 367.498 299.523 365.719 297.616 364.63C299.269 364.993 301.031 364.921 302.739 364.286C307.643 362.507 310.187 357.026 308.443 352.035C307.68 349.875 306.226 348.151 304.446 347.044C306.644 348.151 309.26 348.369 311.749 347.479C316.654 345.701 319.197 340.22 317.453 335.229C316.799 333.359 315.637 331.817 314.165 330.728C315.6 330.927 317.09 330.782 318.543 330.256C323.448 328.477 325.991 322.996 324.247 318.005Z" fill="#FFE6BD"/>
<path d="M384.868 238.131C385.558 238.04 386.248 237.895 386.92 237.641C391.825 235.862 394.368 230.381 392.625 225.39C391.135 221.125 386.957 218.602 382.706 219.092C382.851 219.056 382.978 219.02 383.124 218.965C388.028 217.187 390.572 211.706 388.828 206.715C387.084 201.724 381.688 199.128 376.802 200.907C371.897 202.686 369.354 208.167 371.098 213.158C372.587 217.423 376.765 219.945 381.016 219.455C380.871 219.492 380.744 219.528 380.599 219.582C375.694 221.361 373.15 226.842 374.894 231.833C375.875 234.628 377.983 236.661 380.526 237.605C379.836 237.695 379.145 237.841 378.473 238.095C373.568 239.873 371.025 245.354 372.769 250.345C373.732 253.086 375.803 255.1 378.273 256.08C377.256 256.08 376.239 256.262 375.221 256.625C370.316 258.404 367.773 263.885 369.517 268.876C370.262 270.999 371.679 272.687 373.423 273.794C371.152 272.56 368.409 272.251 365.811 273.195C360.906 274.974 358.363 280.455 360.107 285.446C360.979 287.932 362.741 289.82 364.903 290.872C363.214 290.473 361.397 290.546 359.635 291.181C354.73 292.96 352.187 298.441 353.931 303.432C354.258 304.357 354.694 305.192 355.239 305.936C352.968 304.666 350.207 304.357 347.572 305.319C342.668 307.098 340.124 312.579 341.868 317.57C342.504 319.385 343.63 320.891 345.029 321.98C342.722 320.619 339.852 320.256 337.145 321.236C332.24 323.015 329.697 328.496 331.441 333.487C331.931 334.866 332.694 336.046 333.639 337.026C331.623 336.245 329.334 336.155 327.136 336.953C322.231 338.732 319.687 344.213 321.431 349.204C322.54 352.362 325.101 354.558 328.08 355.302C327.19 355.357 326.3 355.52 325.428 355.847C320.523 357.625 317.98 363.106 319.724 368.097C321.086 371.981 324.665 374.413 328.498 374.449C328.044 374.54 327.59 374.649 327.136 374.812C322.231 376.591 319.687 382.072 321.431 387.063C323.175 392.054 328.571 394.649 333.457 392.871C338.362 391.092 340.906 385.611 339.162 380.62C337.799 376.736 334.22 374.304 330.387 374.268C330.841 374.177 331.296 374.068 331.75 373.905C336.655 372.126 339.198 366.645 337.454 361.654C336.346 358.496 333.784 356.3 330.805 355.556C331.695 355.502 332.585 355.338 333.457 355.012C338.362 353.233 340.906 347.752 339.162 342.761C338.671 341.382 337.908 340.202 336.963 339.222C338.98 340.002 341.269 340.093 343.467 339.294C348.372 337.516 350.915 332.035 349.171 327.044C348.535 325.229 347.409 323.722 346.01 322.633C348.317 323.995 351.188 324.358 353.894 323.378C358.799 321.599 361.342 316.118 359.598 311.127C359.271 310.201 358.835 309.366 358.29 308.622C360.561 309.893 363.323 310.201 365.957 309.239C370.861 307.461 373.405 301.98 371.661 296.989C370.789 294.502 369.027 292.615 366.865 291.562C368.554 291.961 370.371 291.889 372.133 291.254C377.038 289.475 379.581 283.994 377.837 279.003C377.092 276.879 375.675 275.192 373.932 274.084C376.202 275.319 378.945 275.627 381.543 274.683C386.448 272.905 388.991 267.424 387.247 262.433C386.285 259.692 384.214 257.678 381.743 256.698C382.76 256.698 383.778 256.516 384.795 256.153C389.7 254.374 392.243 248.893 390.499 243.902C389.518 241.107 387.411 239.075 384.868 238.131Z" fill="#FFE6BD"/>
</g>
<path d="M281.157 477.446C279.831 479.569 276.834 480.078 274.472 478.589C272.111 477.101 271.293 474.179 272.619 472.074C273.945 469.969 276.943 469.442 279.304 470.93C281.666 472.419 282.483 475.341 281.157 477.446Z" fill="#299764"/>
<path d="M279.322 470.93C277.724 469.914 275.834 469.86 274.363 470.567C274.363 472.201 275.217 473.871 276.834 474.887C278.432 475.903 280.322 475.958 281.793 475.25C281.793 473.616 280.939 471.947 279.322 470.93Z" fill="#A0510A"/>
<path d="M277.978 473.036C274.799 471.039 273.854 466.81 275.853 463.652L288.024 444.378C290.022 441.202 294.255 440.258 297.416 442.255C300.595 444.251 301.54 448.48 299.541 451.638L287.37 470.912C285.372 474.088 281.139 475.032 277.978 473.036Z" fill="#299764"/>
<path d="M288.224 444.124C288.714 446.139 290.113 448.117 292.257 449.46C294.909 451.13 297.943 451.366 300.177 450.349C301.267 447.409 300.177 443.979 297.416 442.236C294.346 440.295 290.277 441.166 288.206 444.106L288.224 444.124Z" fill="#A0510A"/>
<path d="M278.941 469.297C277.905 468.643 277.578 467.246 278.232 466.211L289.95 447.645C290.604 446.61 292.002 446.284 293.038 446.937C294.073 447.59 294.4 448.988 293.746 450.022L282.029 468.589C281.375 469.623 279.976 469.95 278.941 469.297Z" fill="#B4DFC4"/>
<path d="M304.737 445.903C302.848 448.897 298.215 449.405 294.418 447.01C290.622 444.614 289.078 440.24 290.967 437.245C292.856 434.251 297.489 433.743 301.285 436.138C305.082 438.534 306.626 442.908 304.737 445.903Z" fill="#299764"/>
<path d="M303.029 441.202C302.303 442.364 300.141 442.309 298.197 441.093C296.253 439.877 295.272 437.935 296.017 436.792C296.744 435.63 298.906 435.685 300.849 436.901C302.793 438.117 303.774 440.059 303.029 441.202Z" fill="#B4DFC4"/>
<path d="M299.124 438.861C301.612 431.873 299.578 426.41 299.56 426.338L300.341 426.047C300.431 426.265 302.194 431.002 300.45 437.427C303.338 434.777 308.061 432.254 309.66 432.182L309.696 433.017C308.352 433.089 302.357 436.175 299.832 439.26L299.124 438.861Z" fill="#773A08"/>
<path d="M329.77 149.164C331.587 154.263 337.2 156.931 342.323 155.098C347.427 153.283 350.098 147.675 348.263 142.575C346.446 137.475 340.833 134.808 335.71 136.641C330.606 138.456 327.935 144.064 329.77 149.182V149.164Z" fill="#299764"/>
<path d="M334.366 141.595C334.475 143.791 336.655 145.461 339.216 145.316C341.778 145.189 343.776 143.301 343.667 141.105C343.558 138.909 341.378 137.258 338.817 137.385C336.255 137.512 334.257 139.399 334.366 141.595Z" fill="#B4DFC4"/>
<path d="M311.949 141.994C313.765 147.094 319.379 149.762 324.502 147.929C329.606 146.114 332.277 140.506 330.442 135.406C328.625 130.306 323.012 127.638 317.907 129.472C312.803 131.286 310.132 136.895 311.967 142.013L311.949 141.994Z" fill="#299764"/>
<path d="M316.545 134.426C316.654 136.622 318.834 138.292 321.395 138.147C323.957 138.02 325.955 136.132 325.846 133.936C325.737 131.74 323.557 130.089 320.995 130.216C318.434 130.343 316.436 132.23 316.545 134.426Z" fill="#B4DFC4"/>
<path d="M293.038 139.345C294.854 144.445 300.468 147.113 305.591 145.28C310.713 143.447 313.366 137.857 311.531 132.757C309.714 127.657 304.101 124.989 298.978 126.822C293.873 128.637 291.203 134.245 293.038 139.363V139.345Z" fill="#299764"/>
<path d="M297.634 131.795C297.743 133.991 299.923 135.661 302.484 135.515C305.045 135.388 307.044 133.501 306.935 131.305C306.826 129.109 304.646 127.457 302.084 127.584C299.523 127.711 297.525 129.599 297.634 131.795Z" fill="#B4DFC4"/>
<path d="M273.4 140.18C275.217 145.279 280.83 147.947 285.953 146.114C291.058 144.299 293.728 138.691 291.893 133.591C290.077 128.491 284.463 125.824 279.359 127.657C274.254 129.472 271.584 135.08 273.418 140.198L273.4 140.18Z" fill="#299764"/>
<path d="M277.996 132.611C278.105 134.807 280.285 136.477 282.847 136.332C285.408 136.205 287.406 134.317 287.297 132.121C287.188 129.925 285.008 128.274 282.447 128.401C279.885 128.528 277.887 130.415 277.996 132.611Z" fill="#B4DFC4"/>
<path d="M255.725 148.456C257.541 153.556 263.155 156.223 268.277 154.39C273.382 152.575 276.053 146.967 274.218 141.849C272.401 136.749 266.788 134.081 261.683 135.915C256.578 137.729 253.908 143.338 255.743 148.456H255.725Z" fill="#299764"/>
<path d="M260.321 140.887C260.43 143.083 262.61 144.753 265.171 144.608C267.732 144.481 269.731 142.593 269.622 140.397C269.513 138.201 267.333 136.55 264.771 136.677C262.21 136.804 260.212 138.691 260.321 140.887Z" fill="#B4DFC4"/>
<path d="M240.974 161.614C242.79 166.714 248.404 169.382 253.526 167.549C258.631 165.734 261.302 160.126 259.467 155.008C257.65 149.908 252.037 147.24 246.932 149.073C241.827 150.906 239.157 156.496 240.992 161.614H240.974Z" fill="#299764"/>
<path d="M245.57 154.046C245.679 156.242 247.859 157.911 250.42 157.766C252.981 157.639 254.98 155.752 254.871 153.556C254.762 151.36 252.582 149.708 250.02 149.835C247.459 149.962 245.461 151.85 245.57 154.046Z" fill="#B4DFC4"/>
<path d="M233.326 175.661C235.142 180.761 240.756 183.429 245.879 181.596C250.983 179.781 253.654 174.173 251.819 169.055C250.002 163.955 244.389 161.287 239.266 163.12C234.161 164.935 231.491 170.543 233.326 175.661Z" fill="#299764"/>
<path d="M237.922 168.093C238.031 170.289 240.211 171.959 242.772 171.814C245.334 171.687 247.332 169.799 247.223 167.603C247.114 165.407 244.934 163.756 242.372 163.883C239.811 164.01 237.813 165.897 237.922 168.093Z" fill="#B4DFC4"/>
<path d="M230.201 191.633C232.018 196.733 237.631 199.4 242.754 197.567C247.859 195.753 250.529 190.144 248.694 185.026C246.878 179.926 241.264 177.258 236.16 179.092C231.055 180.925 228.385 186.515 230.219 191.633H230.201Z" fill="#299764"/>
<path d="M234.797 184.065C234.906 186.261 237.086 187.93 239.648 187.785C242.209 187.658 244.207 185.771 244.098 183.575C243.989 181.379 241.809 179.727 239.248 179.854C236.686 179.981 234.688 181.869 234.797 184.065Z" fill="#B4DFC4"/>
<path d="M231.273 207.894C233.09 212.994 238.703 215.662 243.826 213.829C248.949 211.996 251.601 206.406 249.766 201.306C247.95 196.206 242.336 193.538 237.231 195.371C232.127 197.186 229.456 202.794 231.291 207.912L231.273 207.894Z" fill="#299764"/>
<path d="M235.851 200.326C235.96 202.522 238.14 204.192 240.701 204.047C243.263 203.901 245.261 202.032 245.152 199.836C245.043 197.64 242.863 195.988 240.302 196.116C237.74 196.243 235.742 198.13 235.851 200.326Z" fill="#B4DFC4"/>
<path d="M238.721 222.087C240.538 227.187 246.151 229.855 251.274 228.022C256.379 226.207 259.049 220.599 257.214 215.481C255.398 210.381 249.784 207.713 244.68 209.546C239.575 211.379 236.905 216.969 238.739 222.087H238.721Z" fill="#299764"/>
<path d="M243.317 214.519C243.426 216.715 245.606 218.384 248.168 218.239C250.729 218.094 252.727 216.225 252.618 214.029C252.509 211.833 250.329 210.181 247.768 210.308C245.207 210.435 243.208 212.323 243.317 214.519Z" fill="#B4DFC4"/>
<path d="M248.549 235.953C250.366 241.053 255.979 243.721 261.102 241.888C266.206 240.073 268.877 234.465 267.042 229.365C265.225 224.265 259.612 221.597 254.489 223.43C249.385 225.245 246.714 230.853 248.549 235.971V235.953Z" fill="#299764"/>
<path d="M253.145 228.385C253.254 230.581 255.434 232.251 257.995 232.106C260.557 231.979 262.555 230.091 262.446 227.895C262.337 225.699 260.157 224.047 257.596 224.174C255.034 224.302 253.036 226.189 253.145 228.385Z" fill="#B4DFC4"/>
<path d="M260.43 247.732C262.246 252.832 267.86 255.5 272.983 253.667C278.087 251.852 280.758 246.244 278.923 241.126C277.106 236.026 271.493 233.358 266.388 235.191C261.284 237.006 258.613 242.614 260.448 247.732H260.43Z" fill="#299764"/>
<path d="M265.026 240.164C265.135 242.36 267.315 244.029 269.876 243.884C272.438 243.757 274.436 241.87 274.327 239.674C274.218 237.478 272.038 235.826 269.476 235.953C266.915 236.08 264.917 237.968 265.026 240.164Z" fill="#B4DFC4"/>
<path d="M272.855 259.402C274.672 264.502 280.285 267.17 285.408 265.336C290.513 263.522 293.183 257.913 291.348 252.795C289.532 247.695 283.918 245.028 278.814 246.861C273.709 248.694 271.039 254.284 272.873 259.402H272.855Z" fill="#299764"/>
<path d="M277.451 251.833C277.56 254.029 279.74 255.699 282.302 255.554C284.863 255.427 286.861 253.539 286.752 251.343C286.643 249.147 284.463 247.496 281.902 247.623C279.341 247.75 277.342 249.637 277.451 251.833Z" fill="#B4DFC4"/>
<path d="M284.118 271.181C285.935 276.28 291.548 278.948 296.671 277.115C301.776 275.3 304.446 269.692 302.611 264.592C300.795 259.492 295.181 256.825 290.077 258.658C284.972 260.472 282.302 266.081 284.136 271.199L284.118 271.181Z" fill="#299764"/>
<path d="M288.714 263.612C288.823 265.808 291.003 267.478 293.565 267.333C296.126 267.206 298.124 265.318 298.015 263.122C297.906 260.926 295.726 259.275 293.165 259.402C290.604 259.529 288.605 261.416 288.714 263.612Z" fill="#B4DFC4"/>
<path d="M294.455 286.299C296.271 291.399 301.885 294.067 307.008 292.234C312.112 290.419 314.783 284.811 312.948 279.711C311.131 274.611 305.518 271.943 300.413 273.776C295.309 275.591 292.638 281.199 294.473 286.317L294.455 286.299Z" fill="#299764"/>
<path d="M299.033 278.731C299.142 280.927 301.322 282.597 303.883 282.451C306.445 282.324 308.443 280.437 308.334 278.241C308.225 276.045 306.045 274.375 303.484 274.52C300.922 274.665 298.924 276.535 299.033 278.731Z" fill="#B4DFC4"/>
<path d="M301.649 302.651C303.465 307.751 309.078 310.419 314.201 308.586C319.306 306.771 321.976 301.163 320.142 296.063C318.307 290.963 312.712 288.295 307.607 290.128C302.502 291.943 299.832 297.551 301.667 302.669L301.649 302.651Z" fill="#299764"/>
<path d="M306.244 295.083C306.353 297.279 308.533 298.949 311.095 298.804C313.656 298.677 315.655 296.789 315.546 294.593C315.437 292.397 313.257 290.745 310.695 290.872C308.134 291 306.135 292.887 306.244 295.083Z" fill="#B4DFC4"/>
<path d="M302.811 320.891C304.628 325.991 310.241 328.659 315.364 326.826C320.469 325.011 323.139 319.403 321.304 314.285C319.488 309.185 313.875 306.517 308.77 308.35C303.665 310.165 300.995 315.773 302.83 320.891H302.811Z" fill="#299764"/>
<path d="M307.407 313.323C307.516 315.519 309.696 317.189 312.258 317.043C314.819 316.916 316.817 315.029 316.708 312.833C316.599 310.637 314.419 308.985 311.858 309.112C309.297 309.239 307.298 311.127 307.407 313.323Z" fill="#B4DFC4"/>
<path d="M295.726 338.496C297.543 343.596 303.156 346.264 308.279 344.431C313.384 342.616 316.054 337.008 314.22 331.89C312.403 326.79 306.79 324.122 301.685 325.955C296.58 327.77 293.91 333.378 295.745 338.496H295.726Z" fill="#299764"/>
<path d="M300.304 330.928C300.413 333.124 302.593 334.794 305.155 334.649C307.716 334.522 309.714 332.634 309.605 330.438C309.496 328.242 307.316 326.572 304.755 326.717C302.175 326.844 300.195 328.732 300.304 330.928Z" fill="#B4DFC4"/>
<path d="M286.335 355.701C288.151 360.801 293.764 363.469 298.887 361.636C303.992 359.821 306.662 354.213 304.828 349.113C303.011 344.013 297.398 341.345 292.293 343.178C287.188 344.993 284.518 350.601 286.353 355.72L286.335 355.701Z" fill="#299764"/>
<path d="M290.931 348.133C291.04 350.329 293.22 351.999 295.781 351.854C298.342 351.727 300.341 349.839 300.232 347.643C300.123 345.447 297.943 343.796 295.381 343.923C292.802 344.05 290.822 345.937 290.931 348.133Z" fill="#B4DFC4"/>
<path d="M279.504 373.832C281.321 378.932 286.934 381.6 292.057 379.767C297.162 377.952 299.832 372.344 297.997 367.226C296.181 362.126 290.567 359.458 285.444 361.291C280.34 363.106 277.669 368.714 279.504 373.832Z" fill="#299764"/>
<path d="M284.1 366.264C284.209 368.46 286.389 370.13 288.951 369.985C291.512 369.858 293.51 367.97 293.401 365.774C293.292 363.578 291.112 361.927 288.551 362.054C285.989 362.181 283.991 364.068 284.1 366.264Z" fill="#B4DFC4"/>
<path d="M274.908 392.454C276.725 397.553 282.338 400.221 287.461 398.388C292.566 396.573 295.236 390.965 293.401 385.847C291.585 380.747 285.971 378.079 280.867 379.912C275.762 381.727 273.091 387.335 274.926 392.454H274.908Z" fill="#299764"/>
<path d="M279.504 384.885C279.613 387.081 281.793 388.751 284.354 388.606C286.916 388.479 288.914 386.591 288.805 384.395C288.696 382.199 286.516 380.548 283.955 380.675C281.393 380.802 279.395 382.689 279.504 384.885Z" fill="#B4DFC4"/>
<path d="M276.779 411.619C278.596 416.719 284.209 419.387 289.332 417.554C294.455 415.72 297.107 410.131 295.272 405.031C293.456 399.931 287.842 397.263 282.738 399.096C277.633 400.911 274.963 406.519 276.797 411.637L276.779 411.619Z" fill="#299764"/>
<path d="M281.375 404.051C281.484 406.247 283.664 407.916 286.225 407.771C288.787 407.644 290.785 405.757 290.676 403.561C290.567 401.365 288.387 399.713 285.826 399.84C283.264 399.967 281.266 401.855 281.375 404.051Z" fill="#B4DFC4"/>
<path d="M287.079 427.953C288.896 433.053 294.509 435.721 299.632 433.888C304.737 432.073 307.407 426.465 305.573 421.347C303.756 416.247 298.143 413.579 293.038 415.412C287.933 417.227 285.263 422.835 287.098 427.953H287.079Z" fill="#299764"/>
<path d="M291.675 420.385C291.784 422.581 293.964 424.251 296.526 424.105C299.087 423.96 301.085 422.091 300.976 419.895C300.867 417.699 298.688 416.047 296.126 416.174C293.565 416.301 291.566 418.189 291.675 420.385Z" fill="#B4DFC4"/>
<path d="M304.955 435.521C306.771 440.621 312.385 443.289 317.508 441.456C322.631 439.623 325.283 434.033 323.448 428.915C321.631 423.815 316.018 421.147 310.913 422.98C305.809 424.795 303.138 430.403 304.973 435.521H304.955Z" fill="#299764"/>
<path d="M309.551 427.953C309.66 430.149 311.84 431.819 314.401 431.674C316.963 431.547 318.961 429.659 318.852 427.463C318.743 425.267 316.563 423.616 314.002 423.743C311.44 423.87 309.442 425.757 309.551 427.953Z" fill="#B4DFC4"/>
<path d="M320.396 423.851C322.213 428.951 327.826 431.619 332.949 429.786C338.054 427.971 340.724 422.363 338.889 417.263C337.073 412.163 331.459 409.495 326.355 411.328C321.25 413.143 318.579 418.751 320.414 423.869L320.396 423.851Z" fill="#299764"/>
<path d="M324.992 416.283C325.101 418.479 327.281 420.149 329.842 420.003C332.404 419.858 334.402 417.989 334.293 415.793C334.184 413.597 332.004 411.945 329.443 412.072C326.881 412.199 324.883 414.087 324.992 416.283Z" fill="#B4DFC4"/>
<path d="M318.38 404.541C320.196 409.641 325.81 412.309 330.932 410.476C336.037 408.661 338.708 403.053 336.873 397.953C335.056 392.853 329.443 390.185 324.338 392.018C319.233 393.833 316.563 399.441 318.398 404.559L318.38 404.541Z" fill="#299764"/>
<path d="M322.976 396.973C323.085 399.169 325.265 400.838 327.826 400.693C330.387 400.566 332.386 398.679 332.277 396.483C332.168 394.287 329.988 392.635 327.426 392.762C324.865 392.889 322.867 394.777 322.976 396.973Z" fill="#B4DFC4"/>
<path d="M318.38 384.921C320.196 390.021 325.81 392.689 330.932 390.856C336.037 389.041 338.708 383.433 336.873 378.315C335.056 373.215 329.443 370.547 324.338 372.38C319.233 374.195 316.563 379.803 318.398 384.921H318.38Z" fill="#299764"/>
<path d="M322.976 377.353C323.085 379.549 325.265 381.219 327.826 381.074C330.387 380.947 332.386 379.059 332.277 376.863C332.168 374.667 329.988 373.015 327.426 373.142C324.865 373.27 322.867 375.157 322.976 377.353Z" fill="#B4DFC4"/>
<path d="M316.599 365.502C318.416 370.602 324.029 373.27 329.152 371.437C334.257 369.622 336.927 364.014 335.093 358.895C333.276 353.796 327.663 351.128 322.558 352.961C317.453 354.776 314.783 360.384 316.618 365.502H316.599Z" fill="#299764"/>
<path d="M321.195 357.934C321.304 360.13 323.484 361.799 326.046 361.654C328.607 361.527 330.605 359.64 330.496 357.444C330.387 355.248 328.208 353.596 325.646 353.723C323.085 353.85 321.086 355.738 321.195 357.934Z" fill="#B4DFC4"/>
<path d="M318.38 346.191C320.196 351.291 325.81 353.959 330.932 352.126C336.037 350.311 338.708 344.703 336.873 339.585C335.056 334.485 329.443 331.817 324.338 333.65C319.233 335.465 316.563 341.073 318.398 346.191H318.38Z" fill="#299764"/>
<path d="M322.976 338.623C323.085 340.819 325.265 342.489 327.826 342.344C330.387 342.217 332.386 340.329 332.277 338.133C332.168 335.937 329.988 334.285 327.426 334.412C324.865 334.539 322.867 336.427 322.976 338.623Z" fill="#B4DFC4"/>
<path d="M328.807 330.111C330.624 335.211 336.237 337.879 341.36 336.046C346.464 334.231 349.135 328.623 347.3 323.505C345.483 318.405 339.87 315.737 334.765 317.57C329.661 319.385 326.99 324.993 328.825 330.111H328.807Z" fill="#299764"/>
<path d="M333.403 322.543C333.512 324.739 335.692 326.409 338.253 326.263C340.815 326.136 342.813 324.249 342.704 322.053C342.595 319.857 340.415 318.205 337.854 318.332C335.292 318.459 333.294 320.347 333.403 322.543Z" fill="#B4DFC4"/>
<path d="M339.67 313.831C341.487 318.931 347.1 321.599 352.223 319.766C357.328 317.951 359.998 312.343 358.163 307.225C356.347 302.125 350.733 299.457 345.629 301.29C340.524 303.123 337.854 308.713 339.688 313.831H339.67Z" fill="#299764"/>
<path d="M344.266 306.263C344.375 308.459 346.555 310.129 349.117 309.983C351.678 309.856 353.676 307.969 353.567 305.773C353.458 303.577 351.278 301.925 348.717 302.052C346.156 302.179 344.157 304.067 344.266 306.263Z" fill="#B4DFC4"/>
<path d="M352.259 299.384C354.076 304.484 359.689 307.152 364.812 305.319C369.935 303.486 372.587 297.896 370.753 292.796C368.936 287.696 363.323 285.028 358.2 286.861C353.095 288.676 350.425 294.284 352.259 299.403V299.384Z" fill="#299764"/>
<path d="M356.856 291.816C356.965 294.012 359.145 295.682 361.706 295.537C364.267 295.41 366.266 293.522 366.157 291.326C366.048 289.13 363.868 287.479 361.306 287.606C358.745 287.733 356.747 289.62 356.856 291.816Z" fill="#B4DFC4"/>
<path d="M358.69 280.981C360.507 286.081 366.12 288.749 371.243 286.916C376.348 285.101 379.018 279.493 377.183 274.393C375.367 269.293 369.753 266.625 364.649 268.458C359.544 270.273 356.874 275.881 358.708 280.999L358.69 280.981Z" fill="#299764"/>
<path d="M363.286 273.413C363.395 275.609 365.575 277.279 368.137 277.133C370.698 277.006 372.696 275.119 372.587 272.923C372.478 270.727 370.298 269.075 367.737 269.202C365.176 269.329 363.177 271.217 363.286 273.413Z" fill="#B4DFC4"/>
<path d="M368.5 264.03C370.317 269.13 375.93 271.798 381.053 269.965C386.158 268.15 388.828 262.542 386.993 257.442C385.177 252.342 379.563 249.674 374.459 251.507C369.354 253.322 366.683 258.93 368.518 264.048L368.5 264.03Z" fill="#299764"/>
<path d="M373.096 256.462C373.205 258.658 375.385 260.328 377.946 260.183C380.508 260.056 382.506 258.168 382.397 255.972C382.288 253.776 380.108 252.106 377.547 252.251C374.985 252.378 372.987 254.266 373.096 256.462Z" fill="#B4DFC4"/>
<path d="M371.897 245.082C373.714 250.182 379.327 252.85 384.45 251.017C389.555 249.202 392.225 243.594 390.39 238.476C388.574 233.376 382.96 230.708 377.856 232.541C372.751 234.356 370.08 239.964 371.915 245.082H371.897Z" fill="#299764"/>
<path d="M376.493 237.514C376.602 239.71 378.782 241.38 381.343 241.235C383.905 241.108 385.903 239.22 385.794 237.024C385.685 234.828 383.505 233.176 380.944 233.303C378.364 233.431 376.384 235.318 376.493 237.514Z" fill="#B4DFC4"/>
<path d="M374.113 226.134C375.93 231.234 381.543 233.902 386.666 232.069C391.771 230.254 394.441 224.646 392.607 219.528C390.79 214.428 385.177 211.76 380.054 213.593C374.949 215.408 372.279 221.016 374.113 226.134Z" fill="#299764"/>
<path d="M378.709 218.566C378.818 220.762 380.998 222.432 383.56 222.287C386.121 222.16 388.119 220.272 388.01 218.076C387.901 215.88 385.721 214.228 383.16 214.355C380.599 214.482 378.6 216.37 378.709 218.566Z" fill="#B4DFC4"/>
<path d="M370.171 207.041C371.988 212.141 377.601 214.809 382.724 212.976C387.829 211.161 390.499 205.553 388.664 200.435C386.848 195.335 381.234 192.667 376.13 194.5C371.025 196.333 368.355 201.923 370.189 207.041H370.171Z" fill="#299764"/>
<path d="M374.767 199.473C374.876 201.669 377.056 203.339 379.618 203.194C382.179 203.049 384.177 201.179 384.068 198.983C383.959 196.787 381.779 195.136 379.218 195.263C376.656 195.39 374.658 197.277 374.767 199.473Z" fill="#B4DFC4"/>
<path d="M366.974 187.404C368.791 192.504 374.404 195.172 379.527 193.339C384.631 191.524 387.302 185.916 385.467 180.816C383.65 175.716 378.037 173.048 372.932 174.881C367.828 176.714 365.157 182.304 366.992 187.422L366.974 187.404Z" fill="#299764"/>
<path d="M371.57 179.854C371.679 182.05 373.859 183.719 376.42 183.574C378.982 183.447 380.98 181.56 380.871 179.364C380.762 177.168 378.582 175.498 376.021 175.643C373.441 175.77 371.461 177.658 371.57 179.854Z" fill="#B4DFC4"/>
<path d="M357.164 171.433C358.981 176.533 364.594 179.2 369.717 177.367C374.822 175.552 377.492 169.944 375.657 164.844C373.841 159.745 368.228 157.077 363.123 158.91C358.018 160.743 355.348 166.333 357.183 171.451L357.164 171.433Z" fill="#299764"/>
<path d="M361.742 163.864C361.851 166.06 364.031 167.73 366.593 167.585C369.154 167.458 371.152 165.57 371.043 163.374C370.934 161.178 368.754 159.527 366.193 159.654C363.632 159.781 361.633 161.668 361.742 163.864Z" fill="#B4DFC4"/>
<path d="M343.667 157.948C345.483 163.048 351.097 165.716 356.22 163.883C361.324 162.068 363.995 156.46 362.16 151.36C360.343 146.26 354.73 143.592 349.625 145.425C344.521 147.24 341.85 152.848 343.685 157.966L343.667 157.948Z" fill="#299764"/>
<path d="M348.263 150.379C348.372 152.576 350.552 154.245 353.113 154.1C355.675 153.973 357.673 152.085 357.564 149.889C357.455 147.693 355.275 146.042 352.713 146.169C350.152 146.296 348.154 148.183 348.263 150.379Z" fill="#B4DFC4"/>
</svg>
